<?xml version="1.0" standalone="no"?>
<!DOCTYPE svg PUBLIC "-//W3C//DTD SVG 1.1//EN" "http://www.w3.org/Graphics/SVG/1.1/DTD/svg11.dtd" >
<svg>
<metadata>
Created by FontForge 20090622 at Mon May  6 19:43:19 2019
 By deploy user
Copyright (c) 2008-2011 by Accademia di Belle Arti di Urbino and others. All rights reserved.
</metadata>
<defs>
<font id="TitilliumText-Regular" horiz-adv-x="560" >
  <font-face 
    font-family="TitilliumText"
    font-weight="400"
    font-stretch="normal"
    units-per-em="1000"
    panose-1="2 0 0 0 0 0 0 0 0 0"
    ascent="750"
    descent="-250"
    x-height="500"
    cap-height="693"
    bbox="-224 -282 1068 1080"
    underline-thickness="30"
    underline-position="-80"
    unicode-range="U+000D-U+F6C3"
  />
<missing-glyph horiz-adv-x="235" 
 />
    <glyph glyph-name=".notdef" horiz-adv-x="235" 
 />
    <glyph glyph-name=".null" horiz-adv-x="0" 
 />
    <glyph glyph-name=".null" horiz-adv-x="0" 
 />
    <glyph glyph-name="nonmarkingreturn" horiz-adv-x="333" 
 />
    <glyph glyph-name="CR" unicode="&#xd;" horiz-adv-x="235" 
 />
    <glyph glyph-name="DLE" horiz-adv-x="0" 
 />
    <glyph glyph-name="space" unicode=" " horiz-adv-x="220" 
 />
    <glyph glyph-name="exclam" unicode="!" horiz-adv-x="244" 
d="M84 0v108h77v-108h-77zM90 227l-4 466h73l-5 -466h-64z" />
    <glyph glyph-name="quotedbl" unicode="&#x22;" horiz-adv-x="370" 
d="M299 472h-63l-3 221h70zM134 472h-63l-4 221h71z" />
    <glyph glyph-name="numbersign" unicode="#" 
d="M535 176h-112v-176h-64v176h-158v-176h-64v176h-112v60h112v191h-112v60h112v179h64v-179h158v179h64v-179h112v-60h-112v-191h112v-60zM359 236v191h-158v-191h158z" />
    <glyph glyph-name="dollar" unicode="$" 
d="M479 651l-7 -57q-68 8 -126 12l-30 -239q96 -22 136 -58t40 -115q0 -203 -209 -203h-15l-15 -115q-49 3 -49 7l14 111l-143 17l7 58q78 -11 144 -15l33 256q-102 22 -145.5 60t-43.5 124q0 176 211 176q16 0 24 -1l17 128h49l-17 -131zM139 499q0 -58 27.5 -81t101.5 -40
l30 231h-12q-147 0 -147 -110zM424 189q0 50 -26 73t-91 38l-31 -248h4q144 0 144 137z" />
    <glyph glyph-name="percent" unicode="%" 
d="M157 -3l203 682l46 -14l-203 -682zM139 670q108 0 108 -138q0 -70 -29 -105.5t-79 -35.5q-52 0 -80.5 35.5t-28.5 106.5q0 137 109 137zM87 533q0 -93 52 -93q51 0 51 92q0 46 -11.5 67.5t-39.5 21.5t-40 -21t-12 -67zM422 269q109 0 109 -138q0 -71 -29 -106t-80 -35
q-109 0 -109 141q0 138 109 138zM370 131q0 -92 52 -92q28 0 40 22.5t12 69.5q0 46 -11.5 67.5t-40.5 21.5q-28 0 -40 -21.5t-12 -67.5z" />
    <glyph glyph-name="ampersand" unicode="&#x26;" horiz-adv-x="687" 
d="M313 700q85 0 128 -40t43 -111q0 -70 -35 -110.5t-120 -77.5l156 -155q9 24 18 75.5t11 89.5l69 -1q-14 -125 -46 -208l130 -123l-42 -48l-123 115q-67 -116 -216 -116q-133 0 -188 54t-55 160q0 86 36.5 130t118.5 71q-35 40 -45.5 71t-10.5 78q0 67 45 106.5t126 39.5z
M282 53q122 0 172 95l-215 213q-69 -21 -97.5 -54.5t-28.5 -98.5q0 -77 40 -116t129 -39zM213 543q0 -65 45 -110l29 -30q71 30 99 59.5t28 82.5q0 95 -101 95q-100 0 -100 -97z" />
    <glyph glyph-name="quotesingle" unicode="'" horiz-adv-x="205" 
d="M70 472l-2 221h71l-6 -221h-63z" />
    <glyph glyph-name="parenleft" unicode="(" horiz-adv-x="260" 
d="M155 750h67q-11 -29 -26.5 -77t-42 -167.5t-26.5 -204.5t23.5 -191.5t47.5 -170.5l24 -64h-67l-11 24.5t-25 63.5t-31.5 96t-24.5 115t-11 127q0 95 26 207.5t52 177.5z" />
    <glyph glyph-name="parenright" unicode=")" horiz-adv-x="260" 
d="M39 750h67l11 -27t25 -69t31.5 -103t24.5 -120.5t11 -129.5t-10.5 -126t-25.5 -117t-30.5 -94t-26.5 -66l-10 -23h-67q11 26 26.5 70.5t42 157.5t26.5 198t-24 197.5t-48 181.5z" />
    <glyph glyph-name="asterisk" unicode="*" horiz-adv-x="420" 
d="M371 512h-132l41 -126l-46 -14l-42 127l-108 -79l-28 38l108 79l-107 78l29 39l107 -78l41 126l47 -15l-40 -127h130v-48z" />
    <glyph glyph-name="plus" unicode="+" 
d="M56 219v64h190v197h66v-197h192v-64h-192v-199h-66v199h-190z" />
    <glyph glyph-name="comma" unicode="," horiz-adv-x="220" 
d="M36 -123l44 227h78l-64 -227h-58z" />
    <glyph glyph-name="hyphen" unicode="-" horiz-adv-x="440" 
d="M69 243v65h303v-65h-303z" />
    <glyph glyph-name="period" unicode="." horiz-adv-x="213" 
d="M68 0v110h77v-110h-77z" />
    <glyph glyph-name="slash" unicode="/" horiz-adv-x="407" 
d="M32 11l281 697l63 -24l-281 -697z" />
    <glyph glyph-name="zero" unicode="0" 
d="M279 671q123 0 181.5 -77.5t58.5 -274.5q0 -93 -16 -158t-48 -102t-74 -53t-101 -16q-120 0 -180 73.5t-60 255.5q0 101 15.5 170t47.5 108.5t74.5 56.5t101.5 17zM280 607q-58 0 -92.5 -24t-53.5 -88t-19 -177q0 -150 40 -207t125 -57t125 57.5t40 207.5
q0 164 -38.5 226t-126.5 62z" />
    <glyph glyph-name="one" unicode="1" 
d="M110 521l209 139h67v-660h-72v580l-171 -114z" />
    <glyph glyph-name="two" unicode="2" 
d="M491 0h-421v61l196 207q74 76 103.5 120.5t29.5 98.5q0 65 -35.5 91.5t-111.5 26.5q-32 0 -75 -5.5t-69 -11.5l-27 -5l-6 60q95 27 190 27q105 0 157 -42t52 -134q0 -69 -31 -120.5t-106 -125.5l-182 -185h336v-63z" />
    <glyph glyph-name="three" unicode="3" 
d="M80 586l-7 58q94 27 194 27q113 0 161.5 -41t48.5 -130q0 -22 -4.5 -41t-13 -33.5t-16.5 -25.5t-20 -20.5t-19 -14l-17 -10.5t-11 -6q59 -20 88 -53.5t29 -107.5q0 -101 -52 -149.5t-162 -48.5q-46 0 -100 7t-85 13l-31 7l6 59q108 -22 203 -22q147 1 147 131
q0 121 -139 128h-134v62h133q44 0 83.5 33.5t39.5 88.5q0 59 -31.5 84.5t-106.5 25.5q-41 0 -87 -5.5t-71 -10.5z" />
    <glyph glyph-name="four" unicode="4" 
d="M364 0v130h-324v57l190 473h79l-193 -465h248v207h71v-207h86v-65h-86v-130h-71z" />
    <glyph glyph-name="five" unicode="5" 
d="M93 660h383v-65h-323l-18 -221q78 41 158 41q210 0 210 -194q0 -113 -58 -171.5t-163 -58.5q-45 0 -99.5 7.5t-86.5 14.5l-32 7l9 58q114 -23 202 -23q71 0 112 41.5t41 118.5q0 74 -37 105t-106 31q-37 0 -77 -10.5t-62 -20.5l-21 -11l-51 10z" />
    <glyph glyph-name="six" unicode="6" 
d="M487 653l-7 -58q-89 11 -173 11q-87 0 -134 -60.5t-47 -173.5l26 10q26 9 68 19.5t75 10.5q221 0 221 -204q0 -105 -60 -161.5t-171 -56.5q-234 0 -234 343q0 173 67 255t189 82q37 0 82 -4t71 -8zM290 348q-35 0 -76.5 -10t-65.5 -20l-23 -10q4 -254 160 -254
q76 0 116 40t40 114q0 70 -39.5 105t-111.5 35z" />
    <glyph glyph-name="seven" unicode="7" 
d="M78 595v65h409v-97l-256 -573l-68 22l251 557v26h-336z" />
    <glyph glyph-name="eight" unicode="8" 
d="M278 671q110 0 174.5 -43.5t64.5 -127.5q0 -62 -26 -95.5t-88 -59.5q62 -26 93 -62.5t31 -103.5q0 -189 -249 -189q-246 0 -246 178q0 72 28.5 109t88.5 68q-55 27 -80.5 61.5t-25.5 94.5q0 84 62 127t173 43zM278 55q173 0 173 131q0 55 -31 81.5t-91 43.5h-107
q-57 -16 -85 -46t-28 -85q0 -125 169 -125zM279 605q-160 0 -160 -112q0 -47 25 -74.5t78 -45.5h107q56 17 83.5 45t27.5 74q0 113 -161 113z" />
    <glyph glyph-name="nine" unicode="9" 
d="M68 7l6 59q89 -12 173 -12q185 0 186 235l-27 -9q-28 -10 -71.5 -20t-76.5 -10q-216 0 -216 201q0 101 61.5 160t166.5 59q121 0 179 -90t58 -253q0 -183 -65.5 -260t-194.5 -77q-37 0 -82 4t-71 8zM263 314q31 0 74 9.5t70 18.5l27 10q-5 254 -164 254q-71 0 -112 -42
t-41 -113q0 -137 146 -137z" />
    <glyph glyph-name="colon" unicode=":" horiz-adv-x="214" 
d="M68 325v110h77v-110h-77zM68 0v110h77v-110h-77z" />
    <glyph glyph-name="semicolon" unicode=";" horiz-adv-x="246" 
d="M50 -123l44 227h79l-65 -227h-58zM89 325v110h77v-110h-77z" />
    <glyph glyph-name="less" unicode="&#x3c;" 
d="M478 413l-346 -161l346 -165v-74l-418 207v62l418 204v-73z" />
    <glyph glyph-name="equal" unicode="=" 
d="M64 310v64h431v-64h-431zM64 127v65h431v-65h-431z" />
    <glyph glyph-name="greater" unicode="&#x3e;" 
d="M427 252l-346 161v73l418 -204v-62l-418 -207v74z" />
    <glyph glyph-name="question" unicode="?" horiz-adv-x="447" 
d="M406 543q0 -64 -17.5 -98t-76.5 -83q-48 -40 -69 -67.5t-21 -59.5v-36h-60q-11 27 -11 59q0 35 23.5 65t71.5 72q55 48 72 74t17 69q0 54 -33.5 78t-103.5 24q-24 0 -63 -6t-65 -12l-27 -6l-6 57q103 30 168 30q102 0 151.5 -37.5t49.5 -122.5zM153 1v108h76v-108h-76z
" />
    <glyph glyph-name="at" unicode="@" horiz-adv-x="977" 
d="M932 305v-14q0 -77 -8.5 -131t-22 -86.5t-37 -50.5t-47.5 -24t-59 -6q-28 0 -50 6.5t-34 15.5t-19.5 17.5t-10.5 15.5l-2 6q-11 -7 -29.5 -17t-65.5 -26.5t-81 -16.5q-28 0 -50.5 4.5t-47 20.5t-40.5 42.5t-26.5 73.5t-10.5 111q0 133 45 196.5t158 63.5q22 0 51.5 -6.5
t48.5 -13.5l18 -6v16h69v-193q0 -63 0.5 -98t3.5 -67.5t7.5 -46t14.5 -24.5t22 -13t32 -2q21 0 34 3.5t27 17t21.5 39t12.5 70.5t5 109v15q0 186 -83 270t-274 84q-195 0 -288 -94.5t-93 -304.5q0 -222 89 -311.5t292 -89.5l143 9l3 -62q-95 -10 -146 -10q-116 0 -196.5 22
t-140 74.5t-87.5 143t-28 224.5q0 242 114 351.5t338 109.5q223 0 325.5 -102t102.5 -315zM470 56q55 0 151 48q-9 45 -9 178v141q-62 21 -107 21q-84 0 -114 -47.5t-30 -152.5q0 -109 30.5 -148.5t78.5 -39.5z" />
    <glyph glyph-name="A" unicode="A" horiz-adv-x="595" 
d="M24 0l193 693h161l193 -693h-71l-52 183h-300l-52 -183h-72zM271 631l-107 -384h268l-108 384h-53z" />
    <glyph glyph-name="B" unicode="B" horiz-adv-x="616" 
d="M86 693h249q206 0 206 -175q0 -66 -22.5 -103t-67.5 -58q112 -37 112 -163q0 -105 -55.5 -149.5t-158.5 -44.5h-263v693zM341 321h-184v-258h189q71 0 107.5 29.5t36.5 103.5q0 125 -149 125zM333 630h-176v-246h183q67 0 97.5 31t30.5 96q0 62 -33 90.5t-102 28.5z" />
    <glyph glyph-name="C" unicode="C" horiz-adv-x="544" 
d="M499 73l3 -62q-101 -21 -189 -21q-77 0 -127 22.5t-77.5 70.5t-38 109.5t-10.5 152.5q0 93 10.5 155t37.5 110t77.5 70.5t127.5 22.5q91 0 190 -22l-4 -61q-99 18 -179 18q-113 0 -149.5 -67t-36.5 -226q0 -79 6.5 -128.5t26.5 -88.5t57 -56t97 -17q84 0 178 18z" />
    <glyph glyph-name="D" unicode="D" horiz-adv-x="645" 
d="M335 0h-249v693h249q58 0 102 -16.5t72.5 -46t46 -72.5t25 -92t7.5 -110q0 -78 -12 -138.5t-39 -111.5t-78.5 -78.5t-123.5 -27.5zM514 356q0 60 -8 106.5t-27 85.5t-55.5 60t-88.5 21h-178v-565h178q179 0 179 292z" />
    <glyph glyph-name="E" unicode="E" horiz-adv-x="553" 
d="M86 0v693h420v-64h-349v-245h289v-63h-289v-257h349v-64h-420z" />
    <glyph glyph-name="F" unicode="F" horiz-adv-x="526" 
d="M86 0v693h412v-64h-341v-276h289v-64h-289v-289h-71z" />
    <glyph glyph-name="G" unicode="G" horiz-adv-x="616" 
d="M360 289v64h190v-339q-144 -24 -224 -24q-151 0 -209.5 87.5t-58.5 267.5q0 182 58.5 270t207.5 88q47 0 103.5 -6.5t89.5 -12.5l33 -7l-4 -60q-123 21 -214 21q-117 0 -158.5 -68.5t-41.5 -224.5q0 -155 41 -223t157 -68q68 0 149 14v221h-119z" />
    <glyph glyph-name="H" unicode="H" horiz-adv-x="675" 
d="M518 0v316h-361v-316h-71v693h71v-313h361v313h71v-693h-71z" />
    <glyph glyph-name="I" unicode="I" horiz-adv-x="243" 
d="M86 0v693h71v-693h-71z" />
    <glyph glyph-name="J" unicode="J" horiz-adv-x="288" 
d="M205 693l1 -600q0 -56 -10 -89t-36 -49.5t-56.5 -21.5t-85.5 -5v64q40 0 58.5 2.5t34 14t19.5 33.5t4 63v588h71z" />
    <glyph glyph-name="K" unicode="K" horiz-adv-x="567" 
d="M465 0l-190 309l-118 -4v-305h-71v693h71v-324l116 4l183 320h83l-202 -348l213 -345h-85z" />
    <glyph glyph-name="L" unicode="L" horiz-adv-x="479" 
d="M466 0h-380v693h71v-628h309v-65z" />
    <glyph glyph-name="M" unicode="M" horiz-adv-x="838" 
d="M86 0v693h131l202 -593l202 593h132v-693h-72v617h-14l-207 -593h-82l-206 593h-15v-617h-71z" />
    <glyph glyph-name="N" unicode="N" horiz-adv-x="675" 
d="M86 0v693h136l274 -629h21v629h72v-693h-135l-276 629h-21v-629h-71z" />
    <glyph glyph-name="O" unicode="O" horiz-adv-x="661" 
d="M331 54q118 0 158 66t40 223q0 153 -41.5 224.5t-156.5 71.5q-116 0 -157.5 -71t-41.5 -225t41 -221.5t158 -67.5zM331 -10q-155 0 -214 85t-59 268t60 271.5t213 88.5t212.5 -88.5t59.5 -271.5q0 -187 -58.5 -270t-213.5 -83z" />
    <glyph glyph-name="P" unicode="P" horiz-adv-x="593" 
d="M339 236h-182v-236h-71v693h253q112 0 165.5 -55t53.5 -167q0 -235 -219 -235zM157 300h182q145 0 145 171q0 82 -34.5 120.5t-110.5 38.5h-182v-330z" />
    <glyph glyph-name="Q" unicode="Q" horiz-adv-x="661" 
d="M505 -144l-88 144q-37 -10 -86 -10q-155 0 -214 84.5t-59 268.5q0 183 60 271.5t213 88.5t212.5 -88.5t59.5 -271.5q0 -128 -26 -204.5t-89 -113.5l85 -138zM331 54q118 0 158 65.5t40 223.5q0 153 -41.5 224.5t-156.5 71.5q-116 0 -157.5 -71t-41.5 -225t40.5 -221.5
t158.5 -67.5z" />
    <glyph glyph-name="R" unicode="R" horiz-adv-x="615" 
d="M359 268h-202v-268h-71v693h255q110 0 164.5 -50.5t54.5 -157.5q0 -164 -129 -202l137 -283h-80zM486 484q0 146 -145 146h-184v-298h185q144 0 144 152z" />
    <glyph glyph-name="S" unicode="S" horiz-adv-x="541" 
d="M479 684l-7 -60q-138 16 -196 16q-154 0 -154 -116q0 -66 35 -89.5t137 -45.5q110 -24 154.5 -61.5t44.5 -123.5q0 -213 -220 -213q-36 0 -90.5 5t-90.5 10l-37 6l7 61q137 -18 208 -18q151 0 151 144q0 58 -33.5 82.5t-123.5 41.5q-117 24 -166 63t-49 133
q0 185 222 185q36 0 88 -5t86 -10z" />
    <glyph glyph-name="T" unicode="T" horiz-adv-x="526" 
d="M13 628v65h500v-65h-213v-628h-72v628h-215z" />
    <glyph glyph-name="U" unicode="U" horiz-adv-x="644" 
d="M153 207q0 -153 166 -153q85 0 128.5 36t43.5 117v486h72v-485q0 -115 -61.5 -166.5t-182.5 -51.5q-117 0 -177.5 51.5t-60.5 166.5v485h72v-486z" />
    <glyph glyph-name="V" unicode="V" horiz-adv-x="580" 
d="M481 693h74l-183 -693h-164l-183 693h74l162 -629h58z" />
    <glyph glyph-name="W" unicode="W" horiz-adv-x="882" 
d="M31 693h74l121 -630h30l143 623h84l142 -623h31l120 630h75l-142 -693h-135l-133 598l-133 -598h-136z" />
    <glyph glyph-name="X" unicode="X" horiz-adv-x="557" 
d="M101 693l179 -299l180 299h78l-214 -351l214 -342h-82l-178 292l-181 -292h-78l216 340l-216 353h82z" />
    <glyph glyph-name="Y" unicode="Y" horiz-adv-x="537" 
d="M304 292v-292h-71v292l-222 401h81l176 -328l177 328h80z" />
    <glyph glyph-name="Z" unicode="Z" horiz-adv-x="537" 
d="M43 629v64h450v-88l-368 -521v-21h368v-64h-450v87l368 521v22h-368z" />
    <glyph glyph-name="bracketleft" unicode="[" horiz-adv-x="326" 
d="M286 749v-63h-136v-746h136v-63h-206v872h206z" />
    <glyph glyph-name="backslash" unicode="\" horiz-adv-x="431" 
d="M400 14l-63 -27l-307 692l63 27z" />
    <glyph glyph-name="bracketright" unicode="]" horiz-adv-x="326" 
d="M40 686v63h206v-872h-206v63h136v746h-136z" />
    <glyph glyph-name="asciicircum" unicode="^" 
d="M425 319l-147 272l-142 -272h-75l185 341h63l191 -341h-75z" />
    <glyph glyph-name="underscore" unicode="_" horiz-adv-x="633" 
d="M102 -93h428v-62h-428v62z" />
    <glyph glyph-name="grave" unicode="`" horiz-adv-x="234" 
d="M25 739l213 -98l-20 -48l-217 86z" />
    <glyph glyph-name="a" unicode="a" horiz-adv-x="501" 
d="M423 350v-260q4 -37 60 -44l-3 -55q-79 0 -117 39q-91 -40 -182 -40q-68 0 -104 38.5t-36 113.5q0 70 36.5 105t114.5 42l161 16v45q0 52 -22.5 75t-70.5 23q-31 0 -78 -3.5t-78 -6.5l-32 -4l-4 54q111 22 196 22q83 0 121 -39t38 -121zM353 252l-153 -15
q-46 -5 -66.5 -27.5t-20.5 -65.5q0 -95 79 -95q34 0 74 8t64 16l23 8v171z" />
    <glyph glyph-name="b" unicode="b" horiz-adv-x="524" 
d="M292 510q101 0 141 -58t40 -194q0 -150 -50.5 -209t-185.5 -59q-27 0 -68.5 3l-68.5 5l-28 3v718h70v-244q76 35 150 35zM237 53q101 0 132.5 45t31.5 160q0 102 -25 145.5t-91 43.5q-32 0 -67.5 -7.5t-55.5 -15.5l-20 -7v-359q67 -5 95 -5z" />
    <glyph glyph-name="c" unicode="c" horiz-adv-x="435" 
d="M259 510q20 0 53.5 -3.5t57.5 -6.5l23 -4l-2 -58q-80 9 -118 9q-86 0 -117.5 -41.5t-31.5 -146.5q0 -118 29 -162t120 -44l119 8l3 -58q-92 -13 -137 -13q-118 0 -162 59.5t-44 209.5q0 136 47.5 193.5t159.5 57.5z" />
    <glyph glyph-name="d" unicode="d" horiz-adv-x="527" 
d="M454 719v-719h-69v35q-78 -45 -155 -45q-31 0 -55 5.5t-48 21.5t-40 43.5t-26 74t-10 110.5q0 136 48.5 200.5t161.5 64.5q54 0 123 -13v222h70zM238 53q32 0 68.5 9.5t57.5 19.5l20 10v345q-68 12 -120 12q-79 0 -110 -49.5t-31 -154.5q0 -60 9 -100t26.5 -59t36 -26
t43.5 -7z" />
    <glyph glyph-name="e" unicode="e" horiz-adv-x="505" 
d="M256 52q33 0 78.5 2t75.5 4l29 3l2 -55q-113 -16 -193 -16q-109 1 -153 63.5t-44 194.5q0 262 208 262q101 0 150.5 -56.5t49.5 -178.5l-3 -54h-334q0 -87 30.5 -128t103.5 -41zM122 277h267q0 95 -30.5 134.5t-99.5 39.5q-68 0 -102.5 -41t-34.5 -133z" />
    <glyph glyph-name="f" unicode="f" horiz-adv-x="328" 
d="M163 439v-439h-69v439h-64v61h64v47q0 106 29.5 144.5t103.5 38.5l100 -7l-1 -58q-57 2 -86 2q-44 0 -60.5 -25t-16.5 -96v-46h148v-61h-148z" />
    <glyph glyph-name="g" unicode="g" horiz-adv-x="513" 
d="M264 -236q-120 0 -166.5 33t-46.5 119q0 41 18 67t62 58q-27 18 -27 69q0 8 8 28t16 36l9 15q-80 34 -80 150q0 171 185 171q22 0 48 -3t41 -7l15 -3l148 4v-61l-97 3q34 -36 34 -104q0 -93 -46 -130.5t-146 -37.5q-28 0 -50 4q-18 -46 -18 -59q0 -22 7.5 -30.5t31.5 -12
t84 -4.5q109 0 150 -29.5t41 -116.5q0 -159 -221 -159zM289 8l-111 4q-33 -24 -45.5 -42.5t-12.5 -47.5q0 -56 30 -77.5t115 -21.5q78 0 113.5 23t35.5 74q0 56 -26 72t-99 16zM242 228q65 0 92 25t27 86q0 62 -27 88t-92 26q-60 0 -87 -26.5t-27 -87.5q0 -60 26.5 -85.5
t87.5 -25.5z" />
    <glyph glyph-name="h" unicode="h" horiz-adv-x="535" 
d="M143 0h-70v719h70v-247q81 38 156 38q100 0 134 -53.5t34 -192.5v-264h-69v261q0 108 -21 147t-89 39q-33 0 -69 -7.5t-56 -15.5l-20 -8v-416z" />
    <glyph glyph-name="i" unicode="i" horiz-adv-x="216" 
d="M73 0v500h70v-500h-70zM73 617v83h70v-83h-70z" />
    <glyph glyph-name="j" unicode="j" horiz-adv-x="215" 
d="M73 12v488h70v-489q0 -90 -33 -136.5t-133 -96.5l-27 55q79 45 101 76.5t22 102.5zM73 617v83h70v-83h-70z" />
    <glyph glyph-name="k" unicode="k" horiz-adv-x="476" 
d="M143 0h-70v719h70v-425l80 3l146 203h80l-165 -230l173 -270h-80l-153 235l-81 -3v-232z" />
    <glyph glyph-name="l" unicode="l" horiz-adv-x="228" 
d="M79 0v719h70v-719h-70z" />
    <glyph glyph-name="m" unicode="m" horiz-adv-x="836" 
d="M143 0h-70v500h69v-36q75 46 148 46q93 0 131 -52q10 6 27 14.5t64 23t87 14.5q100 0 134.5 -53t34.5 -193v-264h-70v261q0 108 -20.5 147t-87.5 39q-34 0 -70.5 -9.5t-55.5 -19.5l-19 -9q13 -36 13 -149v-260h-69v258q0 111 -20.5 150t-88.5 39q-32 0 -66.5 -9.5
t-52.5 -19.5l-18 -10v-408z" />
    <glyph glyph-name="n" unicode="n" horiz-adv-x="536" 
d="M143 0h-70v500h69v-36q82 46 158 46q100 0 134 -53.5t34 -192.5v-264h-70v261q0 108 -21 147t-89 39q-33 0 -69 -9.5t-56 -19.5l-20 -10v-408z" />
    <glyph glyph-name="o" unicode="o" horiz-adv-x="528" 
d="M264 510q116 0 164 -60.5t48 -193.5q0 -144 -45 -205t-167 -61t-167 61t-45 205q0 133 48 193.5t164 60.5zM264 51q87 0 114 44.5t27 160.5q0 109 -30 151t-111 42t-111 -42t-30 -151q0 -116 27 -160.5t114 -44.5z" />
    <glyph glyph-name="p" unicode="p" horiz-adv-x="526" 
d="M73 -223v723h69v-37q76 47 153 47q94 0 137 -61t43 -192q0 -146 -50 -206.5t-167 -60.5q-55 0 -115 12v-225h-70zM286 447q-32 0 -67.5 -10.5t-55.5 -20.5l-20 -10v-343q56 -12 111 -12q83 0 116 47t33 159q0 101 -29.5 145.5t-87.5 44.5z" />
    <glyph glyph-name="q" unicode="q" horiz-adv-x="524" 
d="M238 -10q-101 0 -144 59.5t-43 192.5q0 147 52 207.5t183 60.5l165 -10v-723h-70v247q-69 -34 -143 -34zM287 449q-97 0 -131 -47.5t-34 -159.5q0 -98 28 -143.5t95 -45.5q32 0 66 7.5t52 15.5l18 7v360q-63 6 -94 6z" />
    <glyph glyph-name="r" unicode="r" horiz-adv-x="343" 
d="M73 0v500h69v-69q87 61 185 80v-71q-42 -8 -88 -25.5t-71 -30.5l-25 -14v-370h-70z" />
    <glyph glyph-name="s" unicode="s" horiz-adv-x="465" 
d="M404 491l-2 -60q-110 16 -174 16q-112 0 -112 -79q0 -36 25.5 -51.5t105.5 -28.5q100 -17 137 -44.5t37 -97.5q0 -84 -49.5 -120t-144.5 -36q-28 0 -72 5t-73 9l-30 5l4 60q114 -16 165 -16q67 0 98 19.5t31 70.5q0 40 -26 55.5t-111 28.5q-93 15 -130 42t-37 97
q0 76 51 110t127 34q34 0 79 -5t73 -9z" />
    <glyph glyph-name="t" unicode="t" horiz-adv-x="350" 
d="M330 439h-161v-242q0 -89 13 -117t61 -28l90 6l4 -58q-66 -11 -101 -11q-77 0 -107 38t-30 144v268h-72v61h72v155h70v-155h161v-61z" />
    <glyph glyph-name="u" unicode="u" horiz-adv-x="529" 
d="M386 500h70v-500h-69v36q-76 -46 -151 -46q-101 0 -134.5 53t-33.5 196v261h70v-260q0 -112 19.5 -149.5t88.5 -37.5q33 0 68 9.5t54 19.5l18 10v408z" />
    <glyph glyph-name="v" unicode="v" horiz-adv-x="480" 
d="M25 500h76l120 -439h38l124 439h71l-142 -500h-144z" />
    <glyph glyph-name="w" unicode="w" horiz-adv-x="762" 
d="M32 500h70l104 -439h15l123 429h73l123 -429h16l104 439h70l-121 -500h-118l-110 398l-111 -398h-117z" />
    <glyph glyph-name="x" unicode="x" horiz-adv-x="450" 
d="M23 500h77l125 -199l125 199h77l-160 -248l160 -252h-77l-125 198l-125 -198h-77l158 250z" />
    <glyph glyph-name="y" unicode="y" horiz-adv-x="481" 
d="M26 500h70l127 -439h35l128 439h70l-210 -723h-70l66 223h-72z" />
    <glyph glyph-name="z" unicode="z" horiz-adv-x="455" 
d="M42 437v63h371v-63l-286 -374h286v-63h-371v63l286 374h-286z" />
    <glyph glyph-name="braceleft" unicode="{" horiz-adv-x="351" 
d="M200 170q0 -15 -3.5 -55.5t-3.5 -60.5q0 -59 25 -88t93 -33l-2 -61q-100 4 -142.5 45t-42.5 131q0 21 3.5 66t3.5 56q0 44 -25 70t-82 42v58q57 13 82 39.5t25 71.5q0 13 -3.5 60t-3.5 67q0 92 42.5 132t143.5 44l1 -60q-68 -4 -93.5 -32.5t-25.5 -86.5q0 -17 3.5 -62.5
t3.5 -59.5q0 -65 -21.5 -94t-82.5 -47q61 -18 83 -48.5t22 -93.5z" />
    <glyph glyph-name="bar" unicode="|" horiz-adv-x="227" 
d="M79 -223v942h69v-942h-69z" />
    <glyph glyph-name="braceright" unicode="}" horiz-adv-x="351" 
d="M151 170q0 63 22 93.5t83 48.5q-61 18 -82.5 47t-21.5 94q0 14 3.5 59.5t3.5 62.5q0 58 -25.5 86.5t-93.5 32.5l1 60q101 -4 143.5 -44t42.5 -132q0 -20 -3.5 -67t-3.5 -60q0 -45 25 -71.5t82 -39.5v-58q-57 -16 -82 -42t-25 -70q0 -11 3.5 -56t3.5 -66q0 -90 -42.5 -131
t-142.5 -45l-2 61q68 4 93 33t25 88q0 20 -3.5 60.5t-3.5 55.5z" />
    <glyph glyph-name="asciitilde" unicode="~" 
d="M484 308l10 -57l-18 -15t-40.5 -24t-53.5 -15q-30 0 -105 31.5t-94 31.5q-18 0 -44.5 -12t-43.5 -24l-17 -11l-11 58q63 53 116 53q29 0 103.5 -31.5t95.5 -31.5q16 0 41.5 11.5t42.5 23.5z" />
    <glyph glyph-name="exclamdown" unicode="&#xa1;" horiz-adv-x="225" 
d="M150 500v-108h-77v108h77zM144 273l4 -466h-73l5 466h64z" />
    <glyph glyph-name="cent" unicode="&#xa2;" 
d="M279 -82v119q-93 4 -135 50.5t-42 160.5q0 109 43 160t133 56v120h62v-122q19 0 45 -3t42 -6l16 -3l-3 -57q-80 8 -131 8q-74 0 -104 -35t-30 -118q0 -85 29.5 -116.5t111.5 -31.5l125 7l3 -58q-62 -9 -104 -10v-121h-61z" />
    <glyph glyph-name="sterling" unicode="&#xa3;" 
d="M445 653l-2 -57q-80 11 -124 11q-50 0 -67 -29t-17 -113v-50h172v-60h-172v-293h156l78 16l12 -60l-82 -18h-319v62h86v293h-67v60h67v55q0 118 33 159t114 41q23 0 56 -4t55 -8z" />
    <glyph glyph-name="currency" unicode="&#xa4;" 
d="M450 33l-71 70q-44 -30 -99 -30q-54 0 -100 30l-70 -70l-49 49l70 70q-30 46 -30 100q0 55 30 99l-70 71l49 49l70 -71q47 31 100 31t99 -31l71 71l49 -49l-71 -71q31 -46 31 -99t-31 -100l71 -70zM280 135q48 0 82.5 34.5t34.5 82.5t-34.5 82.5t-82.5 34.5t-82.5 -34.5
t-34.5 -82.5t34.5 -82.5t82.5 -34.5z" />
    <glyph glyph-name="yen" unicode="&#xa5;" 
d="M57 317v61h144l-177 282h81l176 -275l174 275h81l-174 -282h140v-61h-176l-9 -19v-72h186v-61h-186v-165h-72v165h-187v61h187v72l-8 19h-180z" />
    <glyph glyph-name="brokenbar" unicode="&#xa6;" horiz-adv-x="231" 
d="M81 719h69v-374h-69v374zM81 154h69v-377h-69v377z" />
    <glyph glyph-name="section" unicode="&#xa7;" horiz-adv-x="497" 
d="M419 635l-3 -58q-108 14 -156 14q-65 0 -95 -22.5t-30 -71.5q0 -50 30.5 -69t113.5 -34q88 -16 124.5 -45t36.5 -99q0 -38 -15 -75.5t-28 -55.5q37 -31 37 -99q0 -166 -189 -166q-28 0 -71.5 4t-73.5 8l-29 4l7 59q109 -15 164 -15q124 0 124 102q0 47 -29 63t-115 31
q-90 16 -129.5 47t-39.5 101q0 39 21.5 76.5t36.5 48.5q-44 33 -44 112q0 157 189 157q29 0 70 -4t67 -8zM251 336q-66 11 -93 23q-35 -58 -35 -90q0 -45 26.5 -65t90.5 -31q72 -13 104 -27q2 3 8 16t12 36t6 43q0 46 -26.5 64t-92.5 31z" />
    <glyph glyph-name="dieresis" unicode="&#xa8;" horiz-adv-x="234" 
d="M-11 623v87h68v-87h-68zM189 623v87h67v-87h-67z" />
    <glyph glyph-name="copyright" unicode="&#xa9;" horiz-adv-x="646" 
d="M60 434q0 115 75 193.5t188 78.5q114 0 188 -79t74 -193q0 -115 -74 -193.5t-189 -78.5q-112 0 -187 78.5t-75 193.5zM103 434q0 -96 62.5 -163t156.5 -67q95 0 158 67t63 163t-63.5 163t-157.5 67t-156.5 -67t-62.5 -163zM400 338l3 -50q-38 -11 -78 -11
q-64 0 -89.5 37.5t-25.5 120.5q0 80 25.5 118t91.5 38q18 0 37 -2.5t29 -4.5l10 -3l-3 -51q-39 7 -71 7q-39 0 -50.5 -23t-11.5 -79q0 -54 13 -79t49 -25z" />
    <glyph glyph-name="ordfeminine" unicode="&#xaa;" horiz-adv-x="383" 
d="M298 562v-137q9 -12 31 -18l-2 -47q-36 1 -52 6.5t-28 19.5q-56 -25 -108 -25q-39 0 -61.5 24.5t-22.5 65.5q0 79 93 85l90 6v22q0 23 -12 33t-37 10l-114 -7l-2 45q69 14 118 14q55 0 81 -22t26 -75zM238 498l-80 -5q-22 -2 -31.5 -11.5t-9.5 -30.5q0 -39 37 -39
q16 0 37 4t34 8l13 5v69z" />
    <glyph glyph-name="guillemotleft" unicode="&#xab;" horiz-adv-x="533" 
d="M232 346l-126 -96l126 -106v-74l-187 150v57l187 141v-72zM465 346l-126 -96l126 -106v-74l-186 150v57l186 141v-72z" />
    <glyph glyph-name="logicalnot" unicode="&#xac;" 
d="M66 341h427v-223h-65v159h-362v64z" />
    <glyph glyph-name="registered" unicode="&#xae;" horiz-adv-x="646" 
d="M60 434q0 115 74.5 193.5t187.5 78.5q114 0 188.5 -79t74.5 -193q0 -115 -74 -193.5t-189 -78.5q-112 0 -187 78.5t-75 193.5zM103 434q0 -96 63 -163t156 -67q95 0 158 67t63 163t-63.5 163t-157.5 67t-156.5 -67t-62.5 -163zM383 282l-53 108h-62v-108h-54v302h108
q57 0 85 -21.5t28 -72.5q0 -71 -51 -92l56 -116h-57zM268 539v-104h62q27 0 39.5 12t12.5 40t-15.5 40t-48.5 12h-50z" />
    <glyph glyph-name="macron" unicode="&#xaf;" horiz-adv-x="234" 
d="M-15 626v56h274v-56h-274z" />
    <glyph glyph-name="degree" unicode="&#xb0;" 
d="M139 562q0 63 39 102t102 39t102 -39t39 -102t-39 -101.5t-102 -38.5t-102 38.5t-39 101.5zM187 562q0 -42 25.5 -67.5t67.5 -25.5t68.5 25.5t26.5 67.5t-26.5 68.5t-68.5 26.5t-67.5 -26.5t-25.5 -68.5z" />
    <glyph glyph-name="plusminus" unicode="&#xb1;" 
d="M56 295v64h190v127h66v-127h192v-64h-192v-129h-66v129h-190zM56 103h448v-64h-448v64z" />
    <glyph glyph-name="twosuperior" unicode="&#xb2;" horiz-adv-x="280" 
d="M238 478h-207v52l89 90q51 48 51 84q0 39 -50 39l-85 -8l-3 53q59 12 102 12q51 0 74.5 -22t23.5 -69q0 -33 -13.5 -57.5t-47.5 -55.5l-65 -63h131v-55z" />
    <glyph glyph-name="threesuperior" unicode="&#xb3;" horiz-adv-x="280" 
d="M35 789q58 11 102 11q103 0 103 -83q0 -23 -9 -41t-17 -24t-14 -9q25 -8 36.5 -24.5t11.5 -54.5q0 -96 -105 -96q-22 0 -50 2.5t-45 5.5l-17 2l4 53q57 -8 101 -8q51 0 51 44q0 45 -48 45h-66v51h65q15 0 27.5 13.5t12.5 32.5q0 36 -47 36q-19 0 -42 -2t-37 -4l-13 -2z
" />
    <glyph glyph-name="acute" unicode="&#xb4;" horiz-adv-x="268" 
d="M28 641l213 98l24 -60l-217 -86z" />
    <glyph glyph-name="mu" unicode="&#xb5;" 
d="M404 500h70v-500h-69v36q-76 -46 -151 -46q-63 0 -98 19v-232h-70v723h70v-260q0 -112 19.5 -149.5t88.5 -37.5q33 0 68 9.5t54 19.5l18 10v408z" />
    <glyph glyph-name="paragraph" unicode="&#xb6;" horiz-adv-x="592" 
d="M413 0v632h-121v-632h-63v328h-7q-81 0 -133.5 50.5t-52.5 130.5q0 81 53 132.5t133 51.5h330v-61h-76v-632h-63z" />
    <glyph glyph-name="periodcentered" unicode="&#xb7;" horiz-adv-x="214" 
d="M69 234v110h77v-110h-77z" />
    <glyph glyph-name="cedilla" unicode="&#xb8;" horiz-adv-x="263" 
d="M220 -127q0 -88 -92 -88l-85 6l3 46q39 -3 67 -3q45 0 45 39q0 35 -45 35h-43v93h40v-51q58 0 84 -16t26 -61z" />
    <glyph glyph-name="onesuperior" unicode="&#xb9;" horiz-adv-x="280" 
d="M33 720l102 70h56v-312h-60v246l-69 -48z" />
    <glyph glyph-name="ordmasculine" unicode="&#xba;" horiz-adv-x="376" 
d="M189 659q67 0 99.5 -35.5t32.5 -111.5q0 -151 -132 -151q-135 0 -135 151q0 147 135 147zM189 418q38 0 53 21.5t15 71.5t-15 70.5t-53 20.5t-54.5 -21t-16.5 -70t16.5 -71t54.5 -22z" />
    <glyph glyph-name="guillemotright" unicode="&#xbb;" horiz-adv-x="534" 
d="M427 250l-125 96v72l186 -141v-57l-186 -150v74zM194 250l-126 96v72l187 -141v-57l-187 -150v74z" />
    <glyph glyph-name="onequarter" unicode="&#xbc;" horiz-adv-x="533" 
d="M38 720l102 70h56v-312h-60v246l-69 -48zM35 28l392 632l38 -25l-392 -631zM412 -100v49h-141v51l72 212h66l-75 -208h78l5 89h55v-89h28v-55h-28v-49h-60z" />
    <glyph glyph-name="onehalf" unicode="&#xbd;" horiz-adv-x="528" 
d="M42 720l102 70h56v-312h-60v246l-69 -48zM34 28l392 632l38 -25l-392 -631zM484 -100h-207v52l89 90q51 48 51 84q0 39 -50 39l-85 -8l-3 53q59 12 102 12q51 0 74.5 -22t23.5 -69q0 -33 -13.5 -57.5t-47.5 -55.5l-65 -63h131v-55z" />
    <glyph glyph-name="threequarters" unicode="&#xbe;" horiz-adv-x="549" 
d="M54 789q58 11 102 11q103 0 103 -83q0 -23 -9 -41t-17 -24t-14 -9q25 -8 36.5 -24.5t11.5 -54.5q0 -96 -105 -96q-22 0 -50 2.5t-45 5.5l-17 2l4 53q57 -8 101 -8q51 0 51 44q0 45 -48 45h-66v51h65q15 0 27.5 13.5t12.5 32.5q0 36 -47 36q-19 0 -42 -2t-36 -4l-14 -2z
M53 28l392 632l38 -25l-392 -631zM429 -100v49h-141v51l72 212h66l-75 -208h78l5 89h55v-89h28v-55h-28v-49h-60z" />
    <glyph glyph-name="questiondown" unicode="&#xbf;" horiz-adv-x="442" 
d="M38 -42q0 64 17.5 98t76.5 83q48 40 69 67.5t21 59.5v36h60q11 -27 11 -59q0 -35 -23.5 -65t-71.5 -72q-55 -48 -72 -74t-17 -69q0 -54 33.5 -78t103.5 -24q24 0 63 6t65 12l27 6l6 -57q-103 -30 -168 -30q-102 0 -151.5 37.5t-49.5 122.5zM291 500v-108h-76v108h76z" />
    <glyph glyph-name="Agrave" unicode="&#xc0;" horiz-adv-x="595" 
d="M24 0l193 693h161l193 -693h-71l-52 183h-300l-52 -183h-72zM271 631l-107 -384h268l-108 384h-53zM189 930l213 -99l-21 -51l-216 88z" />
    <glyph glyph-name="Aacute" unicode="&#xc1;" horiz-adv-x="595" 
d="M24 0l193 693h161l193 -693h-71l-52 183h-300l-52 -183h-72zM271 631l-107 -384h268l-108 384h-53zM188 831l213 99l25 -62l-216 -88z" />
    <glyph glyph-name="Acircumflex" unicode="&#xc2;" horiz-adv-x="595" 
d="M24 0l193 693h161l193 -693h-71l-52 183h-300l-52 -183h-72zM271 631l-107 -384h268l-108 384h-53zM132 794l134 133h61l134 -133h-79l-85 82l-85 -82h-80z" />
    <glyph glyph-name="Atilde" unicode="&#xc3;" horiz-adv-x="595" 
d="M24 0l193 693h161l193 -693h-71l-52 183h-300l-52 -183h-72zM271 631l-107 -384h268l-108 384h-53zM443 915l17 -52l-13.5 -15.5t-30.5 -25t-39 -15.5q-25 0 -86.5 27.5t-75.5 27.5q-11 0 -29 -12t-30 -24l-13 -13l-16 53q5 6 14 15.5t32 25.5t41 16q27 0 88 -27t74 -27
q9 0 26 11.5t29 23.5z" />
    <glyph glyph-name="Adieresis" unicode="&#xc4;" horiz-adv-x="595" 
d="M24 0l193 693h161l193 -693h-71l-52 183h-300l-52 -183h-72zM271 631l-107 -384h268l-108 384h-53zM162 812v87h68v-87h-68zM364 812v87h68v-87h-68z" />
    <glyph glyph-name="Aring" unicode="&#xc5;" horiz-adv-x="595" 
d="M412 746q0 -44 -29 -73l188 -673h-71l-52 183h-300l-52 -183h-72l187 671q-30 28 -30 75q0 48 32 76t83 28t83.5 -28t32.5 -76zM271 631l-107 -384h268l-108 384h-53zM234 746q0 -45 43 -53h38q43 8 43 53q0 25 -16.5 39.5t-45.5 14.5t-45.5 -14.5t-16.5 -39.5z" />
    <glyph glyph-name="AE" unicode="&#xc6;" horiz-adv-x="876" 
d="M410 0v180h-254l-61 -180h-75l228 696h581v-68h-348v-237h288v-68h-288v-255h348v-68h-419zM300 628l-125 -379h235v379h-110z" />
    <glyph glyph-name="Ccedilla" unicode="&#xc7;" horiz-adv-x="544" 
d="M433 -127q0 -88 -92 -88l-85 6l3 46q39 -3 67 -3q45 0 45 39q0 35 -45 35h-43v83q-130 9 -176.5 93.5t-46.5 260.5q0 93 10.5 155t37.5 110t77.5 70.5t127.5 22.5q91 0 190 -22l-4 -61q-99 18 -179 18q-113 0 -149.5 -67t-36.5 -226q0 -79 6.5 -128.5t26.5 -88.5t57 -56
t97 -17q84 0 178 18l3 -62q-90 -20 -179 -21v-40q58 0 84 -16t26 -61z" />
    <glyph glyph-name="Egrave" unicode="&#xc8;" horiz-adv-x="553" 
d="M86 0v693h420v-64h-349v-245h289v-63h-289v-257h349v-64h-420zM196 930l213 -99l-21 -51l-216 88z" />
    <glyph glyph-name="Eacute" unicode="&#xc9;" horiz-adv-x="553" 
d="M86 0v693h420v-64h-349v-245h289v-63h-289v-257h349v-64h-420zM178 831l213 99l25 -62l-216 -88z" />
    <glyph glyph-name="Ecircumflex" unicode="&#xca;" horiz-adv-x="553" 
d="M86 0v693h420v-64h-349v-245h289v-63h-289v-257h349v-64h-420zM129 794l134 133h61l134 -133h-79l-85 82l-85 -82h-80z" />
    <glyph glyph-name="Edieresis" unicode="&#xcb;" horiz-adv-x="553" 
d="M86 0v693h420v-64h-349v-245h289v-63h-289v-257h349v-64h-420zM160 812v87h68v-87h-68zM362 812v87h68v-87h-68z" />
    <glyph glyph-name="Igrave" unicode="&#xcc;" horiz-adv-x="243" 
d="M86 0v693h71v-693h-71zM4 930l213 -99l-21 -51l-216 88z" />
    <glyph glyph-name="Iacute" unicode="&#xcd;" horiz-adv-x="243" 
d="M86 0v693h71v-693h-71zM13 831l213 99l25 -62l-216 -88z" />
    <glyph glyph-name="Icircumflex" unicode="&#xce;" horiz-adv-x="243" 
d="M86 0v693h71v-693h-71zM-47 794l134 133h61l134 -133h-79l-85 82l-85 -82h-80z" />
    <glyph glyph-name="Idieresis" unicode="&#xcf;" horiz-adv-x="243" 
d="M86 0v693h71v-693h-71zM-14 812v87h68v-87h-68zM188 812v87h68v-87h-68z" />
    <glyph glyph-name="Eth" unicode="&#xd0;" horiz-adv-x="648" 
d="M20 314v68h69v314h248q72 0 122.5 -24.5t78.5 -71.5t40 -105.5t12 -135.5q0 -359 -253 -359h-248v314h-69zM516 359q0 59 -8 104.5t-27 84.5t-55.5 60t-88.5 21h-177v-247h160v-68h-160v-246h177q179 0 179 291z" />
    <glyph glyph-name="Ntilde" unicode="&#xd1;" horiz-adv-x="675" 
d="M86 0v693h136l274 -629h21v629h72v-693h-135l-276 629h-21v-629h-71zM485 915l17 -52l-13.5 -15.5t-30.5 -25t-39 -15.5q-25 0 -86.5 27.5t-75.5 27.5q-11 0 -29 -12t-30 -24l-13 -13l-16 53q5 6 14 15.5t32 25.5t41 16q27 0 88 -27t74 -27q9 0 26 11.5t29 23.5z" />
    <glyph glyph-name="Ograve" unicode="&#xd2;" horiz-adv-x="661" 
d="M331 54q118 0 158 66t40 223q0 153 -41.5 224.5t-156.5 71.5q-116 0 -157.5 -71t-41.5 -225t41 -221.5t158 -67.5zM331 -10q-155 0 -214 85t-59 268t60 271.5t213 88.5t212.5 -88.5t59.5 -271.5q0 -187 -58.5 -270t-213.5 -83zM228 930l213 -99l-21 -51l-216 88z" />
    <glyph glyph-name="Oacute" unicode="&#xd3;" horiz-adv-x="661" 
d="M331 54q118 0 158 66t40 223q0 153 -41.5 224.5t-156.5 71.5q-116 0 -157.5 -71t-41.5 -225t41 -221.5t158 -67.5zM331 -10q-155 0 -214 85t-59 268t60 271.5t213 88.5t212.5 -88.5t59.5 -271.5q0 -187 -58.5 -270t-213.5 -83zM200 831l213 99l25 -62l-216 -88z" />
    <glyph glyph-name="Ocircumflex" unicode="&#xd4;" horiz-adv-x="661" 
d="M331 54q118 0 158 66t40 223q0 153 -41.5 224.5t-156.5 71.5q-116 0 -157.5 -71t-41.5 -225t41 -221.5t158 -67.5zM331 -10q-155 0 -214 85t-59 268t60 271.5t213 88.5t212.5 -88.5t59.5 -271.5q0 -187 -58.5 -270t-213.5 -83zM166 794l134 133h61l134 -133h-79l-85 82
l-85 -82h-80z" />
    <glyph glyph-name="Otilde" unicode="&#xd5;" horiz-adv-x="661" 
d="M331 54q118 0 158 66t40 223q0 153 -41.5 224.5t-156.5 71.5q-116 0 -157.5 -71t-41.5 -225t41 -221.5t158 -67.5zM331 -10q-155 0 -214 85t-59 268t60 271.5t213 88.5t212.5 -88.5t59.5 -271.5q0 -187 -58.5 -270t-213.5 -83zM477 915l17 -52l-13.5 -15.5t-30.5 -25
t-39 -15.5q-25 0 -86.5 27.5t-75.5 27.5q-11 0 -29 -12t-30 -24l-13 -13l-16 53q5 6 14 15.5t32 25.5t41 16q27 0 88 -27t74 -27q9 0 26 11.5t29 23.5z" />
    <glyph glyph-name="Odieresis" unicode="&#xd6;" horiz-adv-x="661" 
d="M331 54q118 0 158 66t40 223q0 153 -41.5 224.5t-156.5 71.5q-116 0 -157.5 -71t-41.5 -225t41 -221.5t158 -67.5zM331 -10q-155 0 -214 85t-59 268t60 271.5t213 88.5t212.5 -88.5t59.5 -271.5q0 -187 -58.5 -270t-213.5 -83zM196 812v87h68v-87h-68zM398 812v87h68v-87
h-68z" />
    <glyph glyph-name="multiply" unicode="&#xd7;" 
d="M118 458l162 -164l163 165l45 -46l-165 -162l165 -163l-46 -45l-162 164l-162 -164l-46 45l164 163l-163 162z" />
    <glyph glyph-name="Oslash" unicode="&#xd8;" horiz-adv-x="661" 
d="M331 -10q-71 0 -122 18l-57 -123l-54 24l59 126q-54 40 -76.5 115t-22.5 193q0 183 60 271.5t213 88.5q73 0 128 -22l55 117l54 -23l-58 -125q93 -77 93 -307q0 -187 -58.5 -270t-213.5 -83zM132 343q0 -181 56 -241l242 517q-40 20 -99 20q-116 0 -157.5 -71t-41.5 -225
zM331 54q118 0 158 66t40 223q0 174 -52 238l-239 -512q38 -15 93 -15z" />
    <glyph glyph-name="Ugrave" unicode="&#xd9;" horiz-adv-x="644" 
d="M153 207q0 -153 166 -153q85 0 128.5 36t43.5 117v486h72v-485q0 -115 -61.5 -166.5t-182.5 -51.5q-117 0 -177.5 51.5t-60.5 166.5v485h72v-486zM222 930l213 -99l-21 -51l-216 88z" />
    <glyph glyph-name="Uacute" unicode="&#xda;" horiz-adv-x="644" 
d="M153 207q0 -153 166 -153q85 0 128.5 36t43.5 117v486h72v-485q0 -115 -61.5 -166.5t-182.5 -51.5q-117 0 -177.5 51.5t-60.5 166.5v485h72v-486zM201 831l213 99l25 -62l-216 -88z" />
    <glyph glyph-name="Ucircumflex" unicode="&#xdb;" horiz-adv-x="644" 
d="M153 207q0 -153 166 -153q85 0 128.5 36t43.5 117v486h72v-485q0 -115 -61.5 -166.5t-182.5 -51.5q-117 0 -177.5 51.5t-60.5 166.5v485h72v-486zM157 794l134 133h61l134 -133h-79l-85 82l-85 -82h-80z" />
    <glyph glyph-name="Udieresis" unicode="&#xdc;" horiz-adv-x="644" 
d="M153 207q0 -153 166 -153q85 0 128.5 36t43.5 117v486h72v-485q0 -115 -61.5 -166.5t-182.5 -51.5q-117 0 -177.5 51.5t-60.5 166.5v485h72v-486zM187 812v87h68v-87h-68zM389 812v87h68v-87h-68z" />
    <glyph glyph-name="Yacute" unicode="&#xdd;" horiz-adv-x="537" 
d="M304 292v-292h-71v292l-222 401h81l176 -328l177 328h80zM170 831l213 99l25 -62l-216 -88z" />
    <glyph glyph-name="Thorn" unicode="&#xde;" horiz-adv-x="599" 
d="M339 191q146 0 146 171q0 79 -35 116t-111 37h-182v-324h182zM339 122h-182v-122h-71v696h71v-113h182q112 0 166 -54t54 -167q0 -115 -55 -177.5t-165 -62.5z" />
    <glyph glyph-name="germandbls" unicode="&#xdf;" horiz-adv-x="571" 
d="M143 0h-70v547q0 101 44.5 142t148.5 41q102 0 146.5 -34t44.5 -110q0 -53 -19 -81.5t-62 -47.5q-36 -16 -47.5 -25t-11.5 -24q0 -16 17 -29.5t70 -39.5q75 -37 103 -69t28 -92q0 -102 -46 -145t-155 -43q-22 0 -54 3.5t-54 6.5l-21 4l3 59q84 -10 120 -10q75 0 104.5 28
t29.5 87q0 43 -21.5 65.5t-89.5 54.5q-63 31 -85 54t-22 61q0 35 18 54.5t59 37.5q37 17 50 36t13 52q0 46 -26 64.5t-92 18.5q-69 0 -96 -26.5t-27 -101.5v-538z" />
    <glyph glyph-name="agrave" unicode="&#xe0;" horiz-adv-x="501" 
d="M423 350v-260q4 -37 60 -44l-3 -55q-79 0 -117 39q-91 -40 -182 -40q-68 0 -104 38.5t-36 113.5q0 70 36.5 105t114.5 42l161 16v45q0 52 -22.5 75t-70.5 23q-31 0 -78 -3.5t-78 -6.5l-32 -4l-4 54q111 22 196 22q83 0 121 -39t38 -121zM353 252l-153 -15
q-46 -5 -66.5 -27.5t-20.5 -65.5q0 -95 79 -95q34 0 74 8t64 16l23 8v171zM147 739l213 -98l-20 -48l-217 86z" />
    <glyph glyph-name="aacute" unicode="&#xe1;" horiz-adv-x="501" 
d="M423 350v-260q4 -37 60 -44l-3 -55q-79 0 -117 39q-91 -40 -182 -40q-68 0 -104 38.5t-36 113.5q0 70 36.5 105t114.5 42l161 16v45q0 52 -22.5 75t-70.5 23q-31 0 -78 -3.5t-78 -6.5l-32 -4l-4 54q111 22 196 22q83 0 121 -39t38 -121zM353 252l-153 -15
q-46 -5 -66.5 -27.5t-20.5 -65.5q0 -95 79 -95q34 0 74 8t64 16l23 8v171zM120 641l213 98l24 -60l-217 -86z" />
    <glyph glyph-name="acircumflex" unicode="&#xe2;" horiz-adv-x="501" 
d="M423 350v-260q4 -37 60 -44l-3 -55q-79 0 -117 39q-91 -40 -182 -40q-68 0 -104 38.5t-36 113.5q0 70 36.5 105t114.5 42l161 16v45q0 52 -22.5 75t-70.5 23q-31 0 -78 -3.5t-78 -6.5l-32 -4l-4 54q111 22 196 22q83 0 121 -39t38 -121zM353 252l-153 -15
q-46 -5 -66.5 -27.5t-20.5 -65.5q0 -95 79 -95q34 0 74 8t64 16l23 8v171zM96 593l123 139h47l124 -139h-71l-76 88l-76 -88h-71z" />
    <glyph glyph-name="atilde" unicode="&#xe3;" horiz-adv-x="501" 
d="M423 350v-260q4 -37 60 -44l-3 -55q-79 0 -117 39q-91 -40 -182 -40q-68 0 -104 38.5t-36 113.5q0 70 36.5 105t114.5 42l161 16v45q0 52 -22.5 75t-70.5 23q-31 0 -78 -3.5t-78 -6.5l-32 -4l-4 54q111 22 196 22q83 0 121 -39t38 -121zM353 252l-153 -15
q-46 -5 -66.5 -27.5t-20.5 -65.5q0 -95 79 -95q34 0 74 8t64 16l23 8v171zM377 710l16 -46q-46 -50 -85 -50q-21 0 -73 24t-67 24q-11 0 -29 -10t-31 -20l-13 -10l-16 45q50 51 89 51q22 0 74 -23.5t66 -23.5q9 0 26.5 9.5t29.5 19.5z" />
    <glyph glyph-name="adieresis" unicode="&#xe4;" horiz-adv-x="501" 
d="M423 350v-260q4 -37 60 -44l-3 -55q-79 0 -117 39q-91 -40 -182 -40q-68 0 -104 38.5t-36 113.5q0 70 36.5 105t114.5 42l161 16v45q0 52 -22.5 75t-70.5 23q-31 0 -78 -3.5t-78 -6.5l-32 -4l-4 54q111 22 196 22q83 0 121 -39t38 -121zM353 252l-153 -15
q-46 -5 -66.5 -27.5t-20.5 -65.5q0 -95 79 -95q34 0 74 8t64 16l23 8v171zM108 623v87h68v-87h-68zM308 623v87h67v-87h-67z" />
    <glyph glyph-name="aring" unicode="&#xe5;" horiz-adv-x="501" 
d="M423 350v-260q4 -37 60 -44l-3 -55q-79 0 -117 39q-91 -40 -182 -40q-68 0 -104 38.5t-36 113.5q0 70 36.5 105t114.5 42l161 16v45q0 52 -22.5 75t-70.5 23q-31 0 -78 -3.5t-78 -6.5l-32 -4l-4 54q111 22 196 22q83 0 121 -39t38 -121zM353 252l-153 -15
q-46 -5 -66.5 -27.5t-20.5 -65.5q0 -95 79 -95q34 0 74 8t64 16l23 8v171zM151 646q0 43 30 72.5t74 29.5q43 0 72.5 -29.5t29.5 -72.5q0 -44 -29.5 -73.5t-72.5 -29.5q-44 0 -74 29.5t-30 73.5zM199 646q0 -24 16 -41t40 -17q23 0 39 17t16 41q0 23 -16 39.5t-39 16.5
q-24 0 -40 -16.5t-16 -39.5z" />
    <glyph glyph-name="ae" unicode="&#xe6;" horiz-adv-x="806" 
d="M557 54q33 0 78.5 2t74.5 4l30 3l2 -57q-113 -16 -193 -16q-100 0 -146 54l-33 -14q-96 -40 -194 -40q-66 0 -100.5 39t-34.5 113q0 80 41 110.5t140 40.5l131 12v43q0 95 -89 95q-33 0 -80.5 -2.5t-79.5 -4.5l-31 -3l-2 62q118 15 195 15q105 0 136 -76q48 76 158 76
q101 0 150.5 -56.5t49.5 -178.5l-3 -54h-334q0 -86 30.5 -126.5t103.5 -40.5zM186 51q80 0 185 38q-19 53 -19 159l-152 -13q-45 -4 -66 -25.5t-21 -65.5q0 -45 19 -69t54 -24zM423 277h267q0 92 -30.5 131t-99.5 39q-68 0 -102.5 -40.5t-34.5 -129.5z" />
    <glyph glyph-name="ccedilla" unicode="&#xe7;" horiz-adv-x="435" 
d="M358 -127q0 -88 -92 -88l-85 6l3 46q39 -3 67 -3q45 0 45 39q0 35 -45 35h-43v85q-88 11 -122 71.5t-34 194.5q0 136 47.5 193.5t159.5 57.5q20 0 53.5 -3.5t57.5 -6.5l23 -4l-2 -58q-80 9 -118 9q-86 0 -117.5 -41.5t-31.5 -146.5q0 -118 29 -162t120 -44l119 8l3 -58
q-92 -13 -137 -13h-10v-40q58 0 84 -16t26 -61z" />
    <glyph glyph-name="egrave" unicode="&#xe8;" horiz-adv-x="505" 
d="M256 52q33 0 78.5 2t75.5 4l29 3l2 -55q-113 -16 -193 -16q-109 1 -153 63.5t-44 194.5q0 262 208 262q101 0 150.5 -56.5t49.5 -178.5l-3 -54h-334q0 -87 30.5 -128t103.5 -41zM122 277h267q0 95 -30.5 134.5t-99.5 39.5q-68 0 -102.5 -41t-34.5 -133zM146 740l213 -98
l-20 -48l-217 86z" />
    <glyph glyph-name="eacute" unicode="&#xe9;" horiz-adv-x="505" 
d="M256 52q33 0 78.5 2t75.5 4l29 3l2 -55q-113 -16 -193 -16q-109 1 -153 63.5t-44 194.5q0 262 208 262q101 0 150.5 -56.5t49.5 -178.5l-3 -54h-334q0 -87 30.5 -128t103.5 -41zM122 277h267q0 95 -30.5 134.5t-99.5 39.5q-68 0 -102.5 -41t-34.5 -133zM148 641l213 98
l24 -60l-217 -86z" />
    <glyph glyph-name="ecircumflex" unicode="&#xea;" horiz-adv-x="505" 
d="M256 52q33 0 78.5 2t75.5 4l29 3l2 -55q-113 -16 -193 -16q-109 1 -153 63.5t-44 194.5q0 262 208 262q101 0 150.5 -56.5t49.5 -178.5l-3 -54h-334q0 -87 30.5 -128t103.5 -41zM122 277h267q0 95 -30.5 134.5t-99.5 39.5q-68 0 -102.5 -41t-34.5 -133zM114 593l123 139
h47l124 -139h-71l-76 88l-76 -88h-71z" />
    <glyph glyph-name="edieresis" unicode="&#xeb;" horiz-adv-x="505" 
d="M256 52q33 0 78.5 2t75.5 4l29 3l2 -55q-113 -16 -193 -16q-109 1 -153 63.5t-44 194.5q0 262 208 262q101 0 150.5 -56.5t49.5 -178.5l-3 -54h-334q0 -87 30.5 -128t103.5 -41zM122 277h267q0 95 -30.5 134.5t-99.5 39.5q-68 0 -102.5 -41t-34.5 -133zM122 623v87h68
v-87h-68zM322 623v87h67v-87h-67z" />
    <glyph glyph-name="igrave" unicode="&#xec;" horiz-adv-x="216" 
d="M73 0v500h70v-500h-70zM-35 739l213 -98l-20 -48l-217 86z" />
    <glyph glyph-name="iacute" unicode="&#xed;" horiz-adv-x="216" 
d="M39 641l213 98l24 -60l-217 -86zM73 0v500h70v-500h-70z" />
    <glyph glyph-name="icircumflex" unicode="&#xee;" horiz-adv-x="216" 
d="M73 0v500h70v-500h-70zM-41 593l123 139h47l124 -139h-71l-76 88l-76 -88h-71z" />
    <glyph glyph-name="idieresis" unicode="&#xef;" horiz-adv-x="216" 
d="M73 0v500h70v-500h-70zM-30 623v87h68v-87h-68zM170 623v87h67v-87h-67z" />
    <glyph glyph-name="eth" unicode="&#xf0;" horiz-adv-x="546" 
d="M158 525l-32 44l97 65q-54 22 -126 42l15 54q96 -21 171 -56l101 68l31 -44l-78 -53q157 -99 157 -293t-53.5 -277.5t-175.5 -83.5q-106 0 -164 57.5t-58 166.5q0 98 54.5 156.5t153.5 58.5q33 0 75.5 -9t67.5 -19l26 -9q-7 134 -142 213zM256 366q-66 0 -103 -42.5
t-37 -108.5q0 -77 37.5 -118.5t111.5 -41.5q83 0 118.5 60.5t36.5 213.5q-92 37 -164 37z" />
    <glyph glyph-name="ntilde" unicode="&#xf1;" horiz-adv-x="536" 
d="M143 0h-70v500h69v-36q82 46 158 46q100 0 134 -53.5t34 -192.5v-264h-70v261q0 108 -21 147t-89 39q-33 0 -69 -9.5t-56 -19.5l-20 -10v-408zM419 710l16 -46q-46 -50 -85 -50q-21 0 -73 24t-67 24q-11 0 -29 -10t-31 -20l-13 -10l-16 45q50 51 89 51q22 0 74 -23.5
t66 -23.5q9 0 26.5 9.5t29.5 19.5z" />
    <glyph glyph-name="ograve" unicode="&#xf2;" horiz-adv-x="528" 
d="M264 510q116 0 164 -60.5t48 -193.5q0 -144 -45 -205t-167 -61t-167 61t-45 205q0 133 48 193.5t164 60.5zM264 51q87 0 114 44.5t27 160.5q0 109 -30 151t-111 42t-111 -42t-30 -151q0 -116 27 -160.5t114 -44.5zM168 739l213 -98l-20 -48l-217 86z" />
    <glyph glyph-name="oacute" unicode="&#xf3;" horiz-adv-x="528" 
d="M264 510q116 0 164 -60.5t48 -193.5q0 -144 -45 -205t-167 -61t-167 61t-45 205q0 133 48 193.5t164 60.5zM264 51q87 0 114 44.5t27 160.5q0 109 -30 151t-111 42t-111 -42t-30 -151q0 -116 27 -160.5t114 -44.5zM157 641l213 98l24 -60l-217 -86z" />
    <glyph glyph-name="ocircumflex" unicode="&#xf4;" horiz-adv-x="528" 
d="M264 510q116 0 164 -60.5t48 -193.5q0 -144 -45 -205t-167 -61t-167 61t-45 205q0 133 48 193.5t164 60.5zM264 51q87 0 114 44.5t27 160.5q0 109 -30 151t-111 42t-111 -42t-30 -151q0 -116 27 -160.5t114 -44.5zM115 593l123 139h47l124 -139h-71l-76 88l-76 -88h-71z
" />
    <glyph glyph-name="otilde" unicode="&#xf5;" horiz-adv-x="528" 
d="M264 510q116 0 164 -60.5t48 -193.5q0 -144 -45 -205t-167 -61t-167 61t-45 205q0 133 48 193.5t164 60.5zM264 51q87 0 114 44.5t27 160.5q0 109 -30 151t-111 42t-111 -42t-30 -151q0 -116 27 -160.5t114 -44.5zM404 710l16 -46q-46 -50 -85 -50q-21 0 -73 24t-67 24
q-11 0 -29 -10t-31 -20l-13 -10l-16 45q50 51 89 51q22 0 74 -23.5t66 -23.5q9 0 26.5 9.5t30.5 19.5z" />
    <glyph glyph-name="odieresis" unicode="&#xf6;" horiz-adv-x="528" 
d="M264 510q116 0 164 -60.5t48 -193.5q0 -144 -45 -205t-167 -61t-167 61t-45 205q0 133 48 193.5t164 60.5zM264 51q87 0 114 44.5t27 160.5q0 109 -30 151t-111 42t-111 -42t-30 -151q0 -116 27 -160.5t114 -44.5zM127 623v87h68v-87h-68zM327 623v87h67v-87h-67z" />
    <glyph glyph-name="divide" unicode="&#xf7;" 
d="M112 275v69h75v66h186v-66h74v-69h-335zM244 31v98h71v-98h-71z" />
    <glyph glyph-name="oslash" unicode="&#xf8;" horiz-adv-x="528" 
d="M264 510q41 0 76 -8l42 104l48 -18l-44 -104q90 -50 90 -228q0 -144 -45 -205t-167 -61q-42 0 -77 8l-44 -110l-47 17l44 109q-49 27 -68.5 85t-19.5 157q0 133 48 193.5t164 60.5zM264 449q-81 0 -111 -42t-30 -151q0 -77 9 -119t36 -62l149 368q-23 6 -53 6zM264 51
q87 0 114 44.5t27 160.5q0 128 -45 166l-150 -366q19 -5 54 -5z" />
    <glyph glyph-name="ugrave" unicode="&#xf9;" horiz-adv-x="529" 
d="M386 500h70v-500h-69v36q-76 -46 -151 -46q-101 0 -134.5 53t-33.5 196v261h70v-260q0 -112 19.5 -149.5t88.5 -37.5q33 0 68 9.5t54 19.5l18 10v408zM140 739l213 -98l-20 -48l-217 86z" />
    <glyph glyph-name="uacute" unicode="&#xfa;" horiz-adv-x="529" 
d="M386 500h70v-500h-69v36q-76 -46 -151 -46q-101 0 -134.5 53t-33.5 196v261h70v-260q0 -112 19.5 -149.5t88.5 -37.5q33 0 68 9.5t54 19.5l18 10v408zM158 641l213 98l24 -60l-217 -86z" />
    <glyph glyph-name="ucircumflex" unicode="&#xfb;" horiz-adv-x="529" 
d="M386 500h70v-500h-69v36q-76 -46 -151 -46q-101 0 -134.5 53t-33.5 196v261h70v-260q0 -112 19.5 -149.5t88.5 -37.5q33 0 68 9.5t54 19.5l18 10v408zM107 593l123 139h47l124 -139h-71l-76 88l-76 -88h-71z" />
    <glyph glyph-name="udieresis" unicode="&#xfc;" horiz-adv-x="529" 
d="M386 500h70v-500h-69v36q-76 -46 -151 -46q-101 0 -134.5 53t-33.5 196v261h70v-260q0 -112 19.5 -149.5t88.5 -37.5q33 0 68 9.5t54 19.5l18 10v408zM133 623v87h68v-87h-68zM333 623v87h67v-87h-67z" />
    <glyph glyph-name="yacute" unicode="&#xfd;" horiz-adv-x="481" 
d="M26 500h70l127 -439h35l128 439h70l-210 -723h-70l66 223h-72zM157 641l213 98l24 -60l-217 -86z" />
    <glyph glyph-name="thorn" unicode="&#xfe;" horiz-adv-x="525" 
d="M242 51q97 0 128.5 47t31.5 160q0 102 -25 145.5t-91 43.5q-32 0 -67.5 -7.5t-55.5 -15.5l-20 -7v-360q66 -6 99 -6zM292 510q101 0 141 -57t40 -194q0 -150 -49 -209.5t-178 -59.5l-103 7v-220h-70v942h70v-244q76 35 149 35z" />
    <glyph glyph-name="ydieresis" unicode="&#xff;" horiz-adv-x="481" 
d="M26 500h70l127 -439h35l128 439h70l-210 -723h-70l66 223h-72zM106 623v87h68v-87h-68zM306 623v87h67v-87h-67z" />
    <glyph glyph-name="Amacron" unicode="&#x100;" horiz-adv-x="595" 
d="M24 0l193 693h161l193 -693h-71l-52 183h-300l-52 -183h-72zM271 631l-107 -384h268l-108 384h-53zM143 814v56h308v-56h-308z" />
    <glyph glyph-name="amacron" unicode="&#x101;" horiz-adv-x="501" 
d="M423 350v-260q4 -37 60 -44l-3 -55q-79 0 -117 39q-91 -40 -182 -40q-68 0 -104 38.5t-36 113.5q0 70 36.5 105t114.5 42l161 16v45q0 52 -22.5 75t-70.5 23q-31 0 -78 -3.5t-78 -6.5l-32 -4l-4 54q111 22 196 22q83 0 121 -39t38 -121zM353 252l-153 -15
q-46 -5 -66.5 -27.5t-20.5 -65.5q0 -95 79 -95q34 0 74 8t64 16l23 8v171zM112 626v56h274v-56h-274z" />
    <glyph glyph-name="Abreve" unicode="&#x102;" horiz-adv-x="595" 
d="M24 0l193 693h161l193 -693h-71l-52 183h-300l-52 -183h-72zM271 631l-107 -384h268l-108 384h-53zM141 919h65q1 -35 26.5 -55.5t63.5 -20.5t63.5 20.5t26.5 55.5h65q-3 -59 -45.5 -94.5t-109.5 -35.5q-68 0 -110.5 35.5t-44.5 94.5z" />
    <glyph glyph-name="abreve" unicode="&#x103;" horiz-adv-x="502" 
d="M423 348v-251q2 -39 60 -46l-3 -60q-81 0 -117 37q-89 -38 -187 -38q-64 0 -99.5 39.5t-35.5 112.5q0 70 36.5 105t114.5 43l161 15v43q0 95 -89 95q-33 0 -80.5 -3.5t-79.5 -7.5l-31 -3l-4 61q120 20 197 20q79 0 118 -39.5t39 -122.5zM353 248l-153 -13q-87 -8 -87 -91
q0 -45 19 -69t54 -24t77 7.5t66 15.5l24 8v166zM95 732h71q2 -36 24.5 -57t61.5 -21q40 0 62.5 21t24.5 57h71q-3 -63 -44.5 -102t-113.5 -39q-71 0 -113 39t-44 102z" />
    <glyph glyph-name="Aogonek" unicode="&#x104;" horiz-adv-x="595" 
d="M24 0l193 693h161l193 -693h-7q-72 -72 -72 -104q0 -19 11.5 -31.5t29.5 -12.5l51 6l7 -55q-44 -9 -77 -9q-40 0 -65 23.5t-25 63.5q0 54 75 121l-51 181h-300l-52 -183h-72zM271 631l-107 -384h268l-108 384h-53z" />
    <glyph glyph-name="aogonek" unicode="&#x105;" horiz-adv-x="500" 
d="M423 350v-260q4 -37 60 -44l-3 -55q-12 0 -32 2q-64 -68 -64 -97q0 -19 11.5 -31.5t29.5 -12.5l51 6l7 -55q-44 -9 -77 -9q-40 0 -65 23.5t-25 63.5q0 53 79 125q-16 8 -32 24q-91 -40 -182 -40q-68 0 -104 38.5t-36 113.5q0 70 36.5 105t114.5 42l161 16v45
q0 52 -22.5 75t-70.5 23q-31 0 -78 -3.5t-78 -6.5l-32 -4l-4 54q111 22 196 22q83 0 121 -39t38 -121zM353 252l-153 -15q-46 -5 -66.5 -27.5t-20.5 -65.5q0 -95 79 -95q34 0 74 8t64 16l23 8v171z" />
    <glyph glyph-name="Cacute" unicode="&#x106;" horiz-adv-x="544" 
d="M499 73l3 -62q-101 -21 -189 -21q-77 0 -127 22.5t-77.5 70.5t-38 109.5t-10.5 152.5q0 93 10.5 155t37.5 110t77.5 70.5t127.5 22.5q91 0 190 -22l-4 -61q-99 18 -179 18q-113 0 -149.5 -67t-36.5 -226q0 -79 6.5 -128.5t26.5 -88.5t57 -56t97 -17q84 0 178 18zM184 831
l213 99l25 -62l-216 -88z" />
    <glyph glyph-name="cacute" unicode="&#x107;" horiz-adv-x="435" 
d="M259 510q20 0 53.5 -3.5t57.5 -6.5l23 -4l-2 -58q-80 9 -118 9q-86 0 -117.5 -41.5t-31.5 -146.5q0 -118 29 -162t120 -44l119 8l3 -58q-92 -13 -137 -13q-118 0 -162 59.5t-44 209.5q0 136 47.5 193.5t159.5 57.5zM129 641l213 98l24 -60l-217 -86z" />
    <glyph glyph-name="Ccircumflex" unicode="&#x108;" horiz-adv-x="544" 
d="M499 73l3 -62q-101 -21 -189 -21q-77 0 -127 22.5t-77.5 70.5t-38 109.5t-10.5 152.5q0 93 10.5 155t37.5 110t77.5 70.5t127.5 22.5q91 0 190 -22l-4 -61q-99 18 -179 18q-113 0 -149.5 -67t-36.5 -226q0 -79 6.5 -128.5t26.5 -88.5t57 -56t97 -17q84 0 178 18zM147 794
l134 133h61l134 -133h-79l-85 82l-85 -82h-80z" />
    <glyph glyph-name="ccircumflex" unicode="&#x109;" horiz-adv-x="435" 
d="M259 510q20 0 53.5 -3.5t57.5 -6.5l23 -4l-2 -58q-80 9 -118 9q-86 0 -117.5 -41.5t-31.5 -146.5q0 -118 29 -162t120 -44l119 8l3 -58q-92 -13 -137 -13q-118 0 -162 59.5t-44 209.5q0 136 47.5 193.5t159.5 57.5zM86 593l123 139h47l124 -139h-71l-76 88l-76 -88h-71z
" />
    <glyph glyph-name="Cdotaccent" unicode="&#x10a;" horiz-adv-x="544" 
d="M499 73l3 -62q-101 -21 -189 -21q-77 0 -127 22.5t-77.5 70.5t-38 109.5t-10.5 152.5q0 93 10.5 155t37.5 110t77.5 70.5t127.5 22.5q91 0 190 -22l-4 -61q-99 18 -179 18q-113 0 -149.5 -67t-36.5 -226q0 -79 6.5 -128.5t26.5 -88.5t57 -56t97 -17q84 0 178 18zM258 801
v83h70v-83h-70z" />
    <glyph glyph-name="cdotaccent" unicode="&#x10b;" horiz-adv-x="435" 
d="M259 510q20 0 53.5 -3.5t57.5 -6.5l23 -4l-2 -58q-80 9 -118 9q-86 0 -117.5 -41.5t-31.5 -146.5q0 -118 29 -162t120 -44l119 8l3 -58q-92 -13 -137 -13q-118 0 -162 59.5t-44 209.5q0 136 47.5 193.5t159.5 57.5zM216 614v83h70v-83h-70z" />
    <glyph glyph-name="Ccaron" unicode="&#x10c;" horiz-adv-x="544" 
d="M499 73l3 -62q-101 -21 -189 -21q-77 0 -127 22.5t-77.5 70.5t-38 109.5t-10.5 152.5q0 93 10.5 155t37.5 110t77.5 70.5t127.5 22.5q91 0 190 -22l-4 -61q-99 18 -179 18q-113 0 -149.5 -67t-36.5 -226q0 -79 6.5 -128.5t26.5 -88.5t57 -56t97 -17q84 0 178 18zM272 794
l-134 133h79l86 -82l84 82h80l-134 -133h-61z" />
    <glyph glyph-name="ccaron" unicode="&#x10d;" horiz-adv-x="435" 
d="M259 510q20 0 53.5 -3.5t57.5 -6.5l23 -4l-2 -58q-80 9 -118 9q-86 0 -117.5 -41.5t-31.5 -146.5q0 -118 29 -162t120 -44l119 8l3 -58q-92 -13 -137 -13q-118 0 -162 59.5t-44 209.5q0 136 47.5 193.5t159.5 57.5zM215 593l-123 139h71l77 -88l76 88h71l-124 -139h-48z
" />
    <glyph glyph-name="Dcaron" unicode="&#x10e;" horiz-adv-x="645" 
d="M335 0h-249v693h249q58 0 102 -16.5t72.5 -46t46 -72.5t25 -92t7.5 -110q0 -78 -12 -138.5t-39 -111.5t-78.5 -78.5t-123.5 -27.5zM514 356q0 60 -8 106.5t-27 85.5t-55.5 60t-88.5 21h-178v-565h178q179 0 179 292zM263 794l-134 133h79l86 -82l84 82h80l-134 -133h-61z
" />
    <glyph glyph-name="dcaron" unicode="&#x10f;" horiz-adv-x="567" 
d="M515 479l41 205h69l-49 -205h-61zM454 719v-719h-69v35q-78 -45 -155 -45q-31 0 -55 5.5t-48 21.5t-40 43.5t-26 74t-10 110.5q0 136 48.5 200.5t161.5 64.5q54 0 123 -13v222h70zM238 53q32 0 68.5 9.5t57.5 19.5l20 10v345q-68 12 -120 12q-79 0 -110 -49.5t-31 -154.5
q0 -60 9 -100t26.5 -59t36 -26t43.5 -7z" />
    <glyph glyph-name="Dcroat" unicode="&#x110;" horiz-adv-x="648" 
d="M20 314v68h69v314h248q72 0 122.5 -24.5t78.5 -71.5t40 -105.5t12 -135.5q0 -359 -253 -359h-248v314h-69zM516 359q0 59 -8 104.5t-27 84.5t-55.5 60t-88.5 21h-177v-247h160v-68h-160v-246h177q179 0 179 291z" />
    <glyph glyph-name="dcroat" unicode="&#x111;" horiz-adv-x="527" 
d="M454 719v-36h27v-61h-27v-622h-69v35q-78 -45 -155 -45q-31 0 -55 5.5t-48 21.5t-40 43.5t-26 74t-10 110.5q0 136 48.5 200.5t161.5 64.5q54 0 123 -13v125h-191v61h191v36h70zM238 53q32 0 68.5 9.5t57.5 19.5l20 10v345q-68 12 -120 12q-79 0 -110 -49.5t-31 -154.5
q0 -60 9 -100t26.5 -59t36 -26t43.5 -7z" />
    <glyph glyph-name="Emacron" unicode="&#x112;" horiz-adv-x="553" 
d="M86 0v693h420v-64h-349v-245h289v-63h-289v-257h349v-64h-420zM139 814v56h308v-56h-308z" />
    <glyph glyph-name="emacron" unicode="&#x113;" horiz-adv-x="505" 
d="M256 52q33 0 78.5 2t75.5 4l29 3l2 -55q-113 -16 -193 -16q-109 1 -153 63.5t-44 194.5q0 262 208 262q101 0 150.5 -56.5t49.5 -178.5l-3 -54h-334q0 -87 30.5 -128t103.5 -41zM122 277h267q0 95 -30.5 134.5t-99.5 39.5q-68 0 -102.5 -41t-34.5 -133zM124 626v56h274
v-56h-274z" />
    <glyph glyph-name="Ebreve" unicode="&#x114;" horiz-adv-x="553" 
d="M86 0v693h420v-64h-349v-245h289v-63h-289v-257h349v-64h-420zM150 919h65q1 -35 26.5 -55.5t63.5 -20.5t63.5 20.5t26.5 55.5h65q-3 -59 -45.5 -94.5t-109.5 -35.5q-68 0 -110.5 35.5t-44.5 94.5z" />
    <glyph glyph-name="ebreve" unicode="&#x115;" horiz-adv-x="505" 
d="M256 52q33 0 78.5 2t75.5 4l29 3l2 -55q-113 -16 -193 -16q-109 1 -153 63.5t-44 194.5q0 262 208 262q101 0 150.5 -56.5t49.5 -178.5l-3 -54h-334q0 -87 30.5 -128t103.5 -41zM122 277h267q0 95 -30.5 134.5t-99.5 39.5q-68 0 -102.5 -41t-34.5 -133zM109 725h58
q2 -38 25.5 -61.5t63.5 -23.5q41 0 64.5 23.5t24.5 61.5h58q-2 -59 -42 -98.5t-105 -39.5t-104.5 39.5t-42.5 98.5z" />
    <glyph glyph-name="Edotaccent" unicode="&#x116;" horiz-adv-x="553" 
d="M86 0v693h420v-64h-349v-245h289v-63h-289v-257h349v-64h-420zM262 803v83h70v-83h-70z" />
    <glyph glyph-name="edotaccent" unicode="&#x117;" horiz-adv-x="505" 
d="M256 52q33 0 78.5 2t75.5 4l29 3l2 -55q-113 -16 -193 -16q-109 1 -153 63.5t-44 194.5q0 262 208 262q101 0 150.5 -56.5t49.5 -178.5l-3 -54h-334q0 -87 30.5 -128t103.5 -41zM122 277h267q0 95 -30.5 134.5t-99.5 39.5q-68 0 -102.5 -41t-34.5 -133zM219 614v83h70
v-83h-70z" />
    <glyph glyph-name="Eogonek" unicode="&#x118;" horiz-adv-x="553" 
d="M86 0v693h420v-64h-349v-245h289v-63h-289v-257h349v-64h-29q-72 -72 -72 -104q0 -19 11.5 -31.5t29.5 -12.5l51 6l7 -55q-44 -9 -77 -9q-40 0 -65 23.5t-25 63.5q0 49 73 119h-324z" />
    <glyph glyph-name="eogonek" unicode="&#x119;" horiz-adv-x="505" 
d="M415 1q-73 -72 -73 -105q0 -19 11.5 -31.5t29.5 -12.5l51 6l7 -55q-44 -9 -77 -9q-40 0 -65 23.5t-25 63.5q0 49 68 114q-53 -5 -94 -5q-109 1 -153 63.5t-44 194.5q0 262 208 262q101 0 150.5 -56.5t49.5 -178.5l-3 -54h-334q0 -87 30.5 -128t103.5 -41q33 0 78.5 2
t75.5 4l29 3l2 -55q-15 -2 -33 -4zM122 277h267q0 95 -30.5 134.5t-99.5 39.5q-68 0 -102.5 -41t-34.5 -133z" />
    <glyph glyph-name="Ecaron" unicode="&#x11a;" horiz-adv-x="553" 
d="M86 0v693h420v-64h-349v-245h289v-63h-289v-257h349v-64h-420zM261 794l-134 133h79l86 -82l84 82h80l-134 -133h-61z" />
    <glyph glyph-name="ecaron" unicode="&#x11b;" horiz-adv-x="505" 
d="M256 52q33 0 78.5 2t75.5 4l29 3l2 -55q-113 -16 -193 -16q-109 1 -153 63.5t-44 194.5q0 262 208 262q101 0 150.5 -56.5t49.5 -178.5l-3 -54h-334q0 -87 30.5 -128t103.5 -41zM122 277h267q0 95 -30.5 134.5t-99.5 39.5q-68 0 -102.5 -41t-34.5 -133zM228 593l-123 139
h71l77 -88l76 88h71l-124 -139h-48z" />
    <glyph glyph-name="Gcircumflex" unicode="&#x11c;" horiz-adv-x="616" 
d="M360 292v64h190v-339q-144 -24 -224 -24q-151 0 -209.5 87.5t-58.5 267.5q0 182 58.5 270t207.5 88q47 0 103.5 -6.5t89.5 -13.5l33 -6l-4 -60q-123 21 -214 21q-117 0 -158.5 -68.5t-41.5 -224.5q0 -155 41 -223t157 -68q68 0 149 14v221h-119zM157 791l134 133h61
l134 -133h-79l-85 82l-85 -82h-80z" />
    <glyph glyph-name="gcircumflex" unicode="&#x11d;" horiz-adv-x="513" 
d="M264 -236q-120 0 -166.5 33t-46.5 119q0 41 18 67t62 58q-27 18 -27 69q0 8 8 28t16 36l9 15q-80 34 -80 150q0 171 185 171q22 0 48 -3t41 -7l15 -3l148 4v-61l-97 3q34 -36 34 -104q0 -93 -46 -130.5t-146 -37.5q-28 0 -50 4q-18 -46 -18 -59q0 -22 7.5 -30.5t31.5 -12
t84 -4.5q109 0 150 -29.5t41 -116.5q0 -159 -221 -159zM289 8l-111 4q-33 -24 -45.5 -42.5t-12.5 -47.5q0 -56 30 -77.5t115 -21.5q78 0 113.5 23t35.5 74q0 56 -26 72t-99 16zM242 228q65 0 92 25t27 86q0 62 -27 88t-92 26q-60 0 -87 -26.5t-27 -87.5q0 -60 26.5 -85.5
t87.5 -25.5zM114 593l123 139h47l124 -139h-71l-76 88l-76 -88h-71z" />
    <glyph glyph-name="Gbreve" unicode="&#x11e;" horiz-adv-x="616" 
d="M360 289v64h190v-339q-144 -24 -224 -24q-151 0 -209.5 87.5t-58.5 267.5q0 182 58.5 270t207.5 88q47 0 103.5 -6.5t89.5 -12.5l33 -7l-4 -60q-123 21 -214 21q-117 0 -158.5 -68.5t-41.5 -224.5q0 -155 41 -223t157 -68q68 0 149 14v221h-119zM175 919h65
q1 -35 26.5 -55.5t63.5 -20.5t63.5 20.5t26.5 55.5h65q-3 -59 -45.5 -94.5t-109.5 -35.5q-68 0 -110.5 35.5t-44.5 94.5z" />
    <glyph glyph-name="gbreve" unicode="&#x11f;" horiz-adv-x="513" 
d="M264 -236q-120 0 -166.5 33t-46.5 119q0 41 18 67t62 58q-27 18 -27 69q0 8 8 28t16 36l9 15q-80 34 -80 150q0 171 185 171q22 0 48 -3t41 -7l15 -3l148 4v-61l-97 3q34 -36 34 -104q0 -93 -46 -130.5t-146 -37.5q-28 0 -50 4q-18 -46 -18 -59q0 -22 7.5 -30.5t31.5 -12
t84 -4.5q109 0 150 -29.5t41 -116.5q0 -159 -221 -159zM289 8l-111 4q-33 -24 -45.5 -42.5t-12.5 -47.5q0 -56 30 -77.5t115 -21.5q78 0 113.5 23t35.5 74q0 56 -26 72t-99 16zM242 228q65 0 92 25t27 86q0 62 -27 88t-92 26q-60 0 -87 -26.5t-27 -87.5q0 -60 26.5 -85.5
t87.5 -25.5zM113 725h58q2 -38 25.5 -61.5t63.5 -23.5q41 0 64.5 23.5t24.5 61.5h58q-2 -59 -42 -98.5t-105 -39.5t-104.5 39.5t-42.5 98.5z" />
    <glyph glyph-name="Gdotaccent" unicode="&#x120;" horiz-adv-x="616" 
d="M360 289v64h190v-339q-144 -24 -224 -24q-151 0 -209.5 87.5t-58.5 267.5q0 182 58.5 270t207.5 88q47 0 103.5 -6.5t89.5 -12.5l33 -7l-4 -60q-123 21 -214 21q-117 0 -158.5 -68.5t-41.5 -224.5q0 -155 41 -223t157 -68q68 0 149 14v221h-119zM278 803v83h70v-83h-70z
" />
    <glyph glyph-name="gdotaccent" unicode="&#x121;" horiz-adv-x="513" 
d="M264 -236q-120 0 -166.5 33t-46.5 119q0 41 18 67t62 58q-27 18 -27 69q0 8 8 28t16 36l9 15q-80 34 -80 150q0 171 185 171q22 0 48 -3t41 -7l15 -3l148 4v-61l-97 3q34 -36 34 -104q0 -93 -46 -130.5t-146 -37.5q-28 0 -50 4q-18 -46 -18 -59q0 -22 7.5 -30.5t31.5 -12
t84 -4.5q109 0 150 -29.5t41 -116.5q0 -159 -221 -159zM289 8l-111 4q-33 -24 -45.5 -42.5t-12.5 -47.5q0 -56 30 -77.5t115 -21.5q78 0 113.5 23t35.5 74q0 56 -26 72t-99 16zM242 228q65 0 92 25t27 86q0 62 -27 88t-92 26q-60 0 -87 -26.5t-27 -87.5q0 -60 26.5 -85.5
t87.5 -25.5zM225 614v83h70v-83h-70z" />
    <glyph glyph-name="Gcommaaccent" unicode="&#x122;" horiz-adv-x="616" 
d="M360 289v64h190v-339q-144 -24 -224 -24q-151 0 -209.5 87.5t-58.5 267.5q0 182 58.5 270t207.5 88q47 0 103.5 -6.5t89.5 -12.5l33 -7l-4 -60q-123 21 -214 21q-117 0 -158.5 -68.5t-41.5 -224.5q0 -155 41 -223t157 -68q68 0 149 14v221h-119zM264 -282l40 204h69
l-49 -204h-60z" />
    <glyph glyph-name="gcommaaccent" unicode="&#x123;" horiz-adv-x="513" 
d="M304 794l-40 -205h-70l49 205h61zM264 -236q-120 0 -166.5 33t-46.5 119q0 41 18 67t62 58q-27 18 -27 69q0 8 8 28t16 36l9 15q-80 34 -80 150q0 171 185 171q22 0 48 -3t41 -7l15 -3l148 4v-61l-97 3q34 -36 34 -104q0 -93 -46 -130.5t-146 -37.5q-28 0 -50 4
q-18 -46 -18 -59q0 -22 7.5 -30.5t31.5 -12t84 -4.5q109 0 150 -29.5t41 -116.5q0 -159 -221 -159zM289 8l-111 4q-33 -24 -45.5 -42.5t-12.5 -47.5q0 -56 30 -77.5t115 -21.5q78 0 113.5 23t35.5 74q0 56 -26 72t-99 16zM242 228q65 0 92 25t27 86q0 62 -27 88t-92 26
q-60 0 -87 -26.5t-27 -87.5q0 -60 26.5 -85.5t87.5 -25.5z" />
    <glyph glyph-name="Hcircumflex" unicode="&#x124;" horiz-adv-x="675" 
d="M518 0v316h-361v-316h-71v693h71v-313h361v313h71v-693h-71zM173 794l134 133h61l134 -133h-79l-85 82l-85 -82h-80z" />
    <glyph glyph-name="hcircumflex" unicode="&#x125;" horiz-adv-x="535" 
d="M143 0h-70v719h70v-247q81 38 156 38q100 0 134 -53.5t34 -192.5v-264h-69v261q0 108 -21 147t-89 39q-33 0 -69 -7.5t-56 -15.5l-20 -8v-416zM119 776l123 139h47l124 -139h-71l-76 88l-76 -88h-71z" />
    <glyph glyph-name="Hbar" unicode="&#x126;" horiz-adv-x="686" 
d="M14 509v62h76v122h71v-122h361v122h71v-122h84v-62h-84v-509h-71v316h-361v-316h-71v509h-76zM161 380h361v129h-361v-129z" />
    <glyph glyph-name="hbar" unicode="&#x127;" horiz-adv-x="535" 
d="M9 584v61h64v74h70v-74h154v-61h-154v-112q81 38 156 38q100 0 134 -53.5t34 -192.5v-264h-69v261q0 108 -21 147t-89 39q-33 0 -69 -7.5t-56 -15.5l-20 -8v-416h-70v584h-64z" />
    <glyph glyph-name="Itilde" unicode="&#x128;" horiz-adv-x="243" 
d="M86 0v693h71v-693h-71zM266 915l17 -52l-13.5 -15.5t-30.5 -25t-39 -15.5q-25 0 -86.5 27.5t-75.5 27.5q-11 0 -29 -12t-31 -24l-12 -13l-16 53q5 6 14 15.5t32 25.5t41 16q27 0 88 -27t74 -27q9 0 26 11.5t29 23.5z" />
    <glyph glyph-name="itilde" unicode="&#x129;" horiz-adv-x="216" 
d="M73 0v500h70v-500h-70zM251 710l16 -46q-46 -50 -85 -50q-21 0 -73 24t-67 24q-11 0 -29 -10t-31 -20l-13 -10l-16 45q50 51 89 51q22 0 74 -23.5t66 -23.5q9 0 26.5 9.5t29.5 19.5z" />
    <glyph glyph-name="Imacron" unicode="&#x12a;" horiz-adv-x="243" 
d="M86 0v693h71v-693h-71zM-31 814v56h308v-56h-308z" />
    <glyph glyph-name="imacron" unicode="&#x12b;" horiz-adv-x="216" 
d="M73 0v500h70v-500h-70zM-29 626v56h274v-56h-274z" />
    <glyph glyph-name="Ibreve" unicode="&#x12c;" horiz-adv-x="243" 
d="M86 0v693h71v-693h-71zM-26 919h65q1 -35 26.5 -55.5t63.5 -20.5t63.5 20.5t26.5 55.5h65q-3 -59 -45.5 -94.5t-109.5 -35.5q-68 0 -110.5 35.5t-44.5 94.5z" />
    <glyph glyph-name="ibreve" unicode="&#x12d;" horiz-adv-x="216" 
d="M73 0v500h70v-500h-70zM-39 725h58q2 -38 25.5 -61.5t63.5 -23.5q41 0 64.5 23.5t24.5 61.5h58q-2 -59 -42 -98.5t-105 -39.5t-104.5 39.5t-42.5 98.5z" />
    <glyph glyph-name="Iogonek" unicode="&#x12e;" horiz-adv-x="243" 
d="M86 0v693h71v-693q-76 -71 -76 -104q0 -19 12 -31.5t30 -12.5l51 6l7 -55q-44 -9 -77 -9q-40 0 -65.5 23.5t-25.5 63.5q0 52 74 119h-1z" />
    <glyph glyph-name="iogonek" unicode="&#x12f;" horiz-adv-x="216" 
d="M73 0v500h70v-500q-76 -70 -76 -104q0 -19 11.5 -31.5t29.5 -12.5l51 6l7 -55q-44 -9 -77 -9q-40 0 -65 23.5t-25 63.5q0 50 76 119h-2zM73 617v83h70v-83h-70z" />
    <glyph glyph-name="Idotaccent" unicode="&#x130;" horiz-adv-x="243" 
d="M86 0v693h71v-693h-71zM87 803v83h70v-83h-70z" />
    <glyph glyph-name="dotlessi" unicode="&#x131;" horiz-adv-x="216" 
d="M73 0v500h70v-500h-70z" />
    <glyph glyph-name="Jcircumflex" unicode="&#x134;" horiz-adv-x="288" 
d="M205 693l1 -600q0 -56 -10 -89t-36 -49.5t-56.5 -21.5t-85.5 -5v64q40 0 58.5 2.5t34 14t19.5 33.5t4 63v588h71zM4 791l134 133h61l134 -133h-79l-85 82l-85 -82h-80z" />
    <glyph glyph-name="jcircumflex" unicode="&#x135;" horiz-adv-x="216" 
d="M73 12v488h70v-489q0 -90 -33 -136.5t-133 -96.5l-27 55q78 45 100.5 77.5t22.5 101.5zM-41 593l123 139h47l124 -139h-71l-76 88l-76 -88h-71z" />
    <glyph glyph-name="Kcommaaccent" unicode="&#x136;" horiz-adv-x="566" 
d="M465 0l-190 309l-118 -4v-305h-71v696h71v-322l116 3l182 319h84l-202 -348l213 -348h-85zM226 -282l40 204h69l-49 -204h-60z" />
    <glyph glyph-name="kcommaaccent" unicode="&#x137;" horiz-adv-x="476" 
d="M109 -282l40 204h70l-50 -204h-60zM143 0h-70v719h70v-425l80 3l146 203h80l-165 -230l173 -270h-80l-153 235l-81 -3v-232z" />
    <glyph glyph-name="Lacute" unicode="&#x139;" horiz-adv-x="479" 
d="M466 0h-380v696h71v-627h309v-69zM136 831l213 99l25 -62l-216 -88z" />
    <glyph glyph-name="lacute" unicode="&#x13a;" horiz-adv-x="228" 
d="M79 0v719h70v-719h-70zM53 844l213 98l24 -60l-217 -86z" />
    <glyph glyph-name="Lcommaaccent" unicode="&#x13b;" horiz-adv-x="479" 
d="M203 -282l41 204h69l-49 -204h-61zM466 0h-380v693h71v-628h309v-65z" />
    <glyph glyph-name="lcommaaccent" unicode="&#x13c;" horiz-adv-x="228" 
d="M79 0v719h70v-719h-70zM35 -282l40 204h69l-49 -204h-60z" />
    <glyph glyph-name="Lcaron" unicode="&#x13d;" horiz-adv-x="494" 
d="M437 696v-232h-68v232h68zM466 0h-380v693h71v-628h309v-65z" />
    <glyph glyph-name="lcaron" unicode="&#x13e;" horiz-adv-x="261" 
d="M211 479l40 205h70l-50 -205h-60zM79 0v719h70v-719h-70z" />
    <glyph glyph-name="Lslash" unicode="&#x141;" horiz-adv-x="484" 
d="M470 0h-380v276l-57 -40l-36 48l93 65v344h71v-294l147 103l35 -48l-182 -128v-261h309v-65z" />
    <glyph glyph-name="lslash" unicode="&#x142;" horiz-adv-x="304" 
d="M114 0v284l-69 -48l-35 49l104 73v361h69v-313l75 53l35 -49l-110 -77v-333h-69z" />
    <glyph glyph-name="Nacute" unicode="&#x143;" horiz-adv-x="675" 
d="M86 0v693h136l274 -629h21v629h72v-693h-135l-276 629h-21v-629h-71zM221 831l213 99l25 -62l-216 -88z" />
    <glyph glyph-name="nacute" unicode="&#x144;" horiz-adv-x="536" 
d="M143 0h-70v500h69v-36q82 46 158 46q100 0 134 -53.5t34 -192.5v-264h-70v261q0 108 -21 147t-89 39q-33 0 -69 -9.5t-56 -19.5l-20 -10v-408zM162 641l213 98l24 -60l-217 -86z" />
    <glyph glyph-name="Ncommaaccent" unicode="&#x145;" horiz-adv-x="675" 
d="M285 -282l41 204h69l-49 -204h-61zM86 0v693h136l274 -629h21v629h72v-693h-135l-276 629h-21v-629h-71z" />
    <glyph glyph-name="ncommaaccent" unicode="&#x146;" horiz-adv-x="536" 
d="M139 -282l40 204h70l-50 -204h-60zM143 0h-70v500h69v-36q82 46 158 46q100 0 134 -53.5t34 -192.5v-264h-70v261q0 108 -21 147t-89 39q-33 0 -69 -9.5t-56 -19.5l-20 -10v-408z" />
    <glyph glyph-name="Ncaron" unicode="&#x147;" horiz-adv-x="675" 
d="M86 0v693h136l274 -629h21v629h72v-693h-135l-276 629h-21v-629h-71zM307 791l-134 133h79l86 -82l84 82h80l-134 -133h-61z" />
    <glyph glyph-name="ncaron" unicode="&#x148;" horiz-adv-x="536" 
d="M143 0h-70v500h69v-36q82 46 158 46q100 0 134 -53.5t34 -192.5v-264h-70v261q0 108 -21 147t-89 39q-33 0 -69 -9.5t-56 -19.5l-20 -10v-408zM243 593l-123 139h71l77 -88l76 88h71l-124 -139h-48z" />
    <glyph glyph-name="Eng" unicode="&#x14a;" horiz-adv-x="675" 
d="M86 0v693h136l274 -629h21v629h72v-715q0 -56 -10 -89t-36 -49.5t-56.5 -21.5t-85.5 -5v64q40 0 58.5 2.5t34 14t19.5 33.5t4 63v10h-63l-276 629h-21v-629h-71z" />
    <glyph glyph-name="eng" unicode="&#x14b;" horiz-adv-x="536" 
d="M142 0h-69v500h69v-34q88 44 160 44q97 0 132 -57t35 -193v-263q0 -92 -31 -136.5t-128 -96.5l-31 59q75 43 97.5 75t22.5 98v263q0 102 -21 144.5t-86 42.5q-31 0 -68.5 -10t-59.5 -20l-22 -9v-407z" />
    <glyph glyph-name="Omacron" unicode="&#x14c;" horiz-adv-x="661" 
d="M331 54q118 0 158 66t40 223q0 153 -41.5 224.5t-156.5 71.5q-116 0 -157.5 -71t-41.5 -225t41 -221.5t158 -67.5zM331 -10q-155 0 -214 85t-59 268t60 271.5t213 88.5t212.5 -88.5t59.5 -271.5q0 -187 -58.5 -270t-213.5 -83zM175 814v56h308v-56h-308z" />
    <glyph glyph-name="omacron" unicode="&#x14d;" horiz-adv-x="528" 
d="M264 510q116 0 164 -60.5t48 -193.5q0 -144 -45 -205t-167 -61t-167 61t-45 205q0 133 48 193.5t164 60.5zM264 51q87 0 114 44.5t27 160.5q0 109 -30 151t-111 42t-111 -42t-30 -151q0 -116 27 -160.5t114 -44.5zM128 639v56h274v-56h-274z" />
    <glyph glyph-name="Obreve" unicode="&#x14e;" horiz-adv-x="661" 
d="M331 54q118 0 158 66t40 223q0 153 -41.5 224.5t-156.5 71.5q-116 0 -157.5 -71t-41.5 -225t41 -221.5t158 -67.5zM331 -10q-155 0 -214 85t-59 268t60 271.5t213 88.5t212.5 -88.5t59.5 -271.5q0 -187 -58.5 -270t-213.5 -83zM177 919h65q1 -35 26.5 -55.5t63.5 -20.5
t63.5 20.5t26.5 55.5h65q-3 -59 -45.5 -94.5t-109.5 -35.5q-68 0 -110.5 35.5t-44.5 94.5z" />
    <glyph glyph-name="obreve" unicode="&#x14f;" horiz-adv-x="528" 
d="M264 510q116 0 164 -60.5t48 -193.5q0 -144 -45 -205t-167 -61t-167 61t-45 205q0 133 48 193.5t164 60.5zM264 51q87 0 114 44.5t27 160.5q0 109 -30 151t-111 42t-111 -42t-30 -151q0 -116 27 -160.5t114 -44.5zM119 725h58q2 -38 25.5 -61.5t63.5 -23.5
q41 0 64.5 23.5t24.5 61.5h58q-2 -59 -42 -98.5t-105 -39.5t-104.5 39.5t-42.5 98.5z" />
    <glyph glyph-name="Ohungarumlaut" unicode="&#x150;" horiz-adv-x="661" 
d="M331 54q118 0 158 66t40 223q0 153 -41.5 224.5t-156.5 71.5q-116 0 -157.5 -71t-41.5 -225t41 -221.5t158 -67.5zM331 -10q-155 0 -214 85t-59 268t60 271.5t213 88.5t212.5 -88.5t59.5 -271.5q0 -187 -58.5 -270t-213.5 -83zM347 785l148 126l50 -34l-152 -124z
M150 786l148 126l50 -34l-151 -124z" />
    <glyph glyph-name="ohungarumlaut" unicode="&#x151;" horiz-adv-x="528" 
d="M264 510q116 0 164 -60.5t48 -193.5q0 -144 -45 -205t-167 -61t-167 61t-45 205q0 133 48 193.5t164 60.5zM264 51q87 0 114 44.5t27 160.5q0 109 -30 151t-111 42t-111 -42t-30 -151q0 -116 27 -160.5t114 -44.5zM288 624l147 134l50 -41l-150 -133zM96 624l147 134
l50 -41l-150 -133z" />
    <glyph glyph-name="OE" unicode="&#x152;" horiz-adv-x="927" 
d="M879 -1h-411q-92 -9 -144 -9q-79 0 -131.5 22t-82 69t-41 109.5t-11.5 154.5q0 189 58 275.5t208 86.5q75 0 143 -11h412v-69h-341v-236h281v-69h-281v-252h341v-71zM332 60q42 0 135 8v559q-117 10 -136 10q-116 0 -157 -67t-41 -224q0 -79 7.5 -128.5t29 -87t61 -54
t101.5 -16.5z" />
    <glyph glyph-name="oe" unicode="&#x153;" horiz-adv-x="859" 
d="M610 54q33 0 78.5 2t75.5 4l29 3l2 -57q-113 -16 -193 -16q-121 0 -163 93q-21 -49 -62 -71t-112 -22q-122 0 -167.5 62t-45.5 205q0 133 48.5 193t164.5 60q68 0 111 -25t66 -82q45 107 171 107q101 0 150.5 -56.5t49.5 -178.5l-3 -54h-334q0 -85 30.5 -126t103.5 -41z
M265 53q86 0 113 46t27 157q0 102 -33 146.5t-107 44.5q-81 0 -111.5 -41.5t-30.5 -148.5q0 -114 27.5 -159t114.5 -45zM476 277h267q0 92 -30.5 131t-99.5 39q-137 0 -137 -170z" />
    <glyph glyph-name="Racute" unicode="&#x154;" horiz-adv-x="615" 
d="M359 268h-202v-268h-71v693h255q110 0 164.5 -50.5t54.5 -157.5q0 -164 -129 -202l137 -283h-80zM486 484q0 146 -145 146h-184v-298h185q144 0 144 152zM188 831l213 99l25 -62l-216 -88z" />
    <glyph glyph-name="racute" unicode="&#x155;" horiz-adv-x="343" 
d="M73 0v500h69v-69q87 61 185 80v-71q-42 -8 -88 -25.5t-71 -30.5l-25 -14v-370h-70zM68 641l213 98l24 -60l-217 -86z" />
    <glyph glyph-name="Rcommaaccent" unicode="&#x156;" horiz-adv-x="615" 
d="M248 -282l40 204h70l-49 -204h-61zM359 268h-202v-268h-71v693h255q110 0 164.5 -50.5t54.5 -157.5q0 -164 -129 -202l137 -283h-80zM486 484q0 146 -145 146h-184v-298h185q144 0 144 152z" />
    <glyph glyph-name="rcommaaccent" unicode="&#x157;" horiz-adv-x="343" 
d="M33 -282l40 204h70l-50 -204h-60zM73 0v500h69v-69q87 61 185 80v-71q-42 -8 -88 -25.5t-71 -30.5l-25 -14v-370h-70z" />
    <glyph glyph-name="Rcaron" unicode="&#x158;" horiz-adv-x="615" 
d="M359 268h-202v-268h-71v693h255q110 0 164.5 -50.5t54.5 -157.5q0 -164 -129 -202l137 -283h-80zM486 484q0 146 -145 146h-184v-298h185q144 0 144 152zM270 794l-134 133h79l86 -82l84 82h80l-134 -133h-61z" />
    <glyph glyph-name="rcaron" unicode="&#x159;" horiz-adv-x="343" 
d="M73 0v500h69v-69q87 61 185 80v-71q-42 -8 -88 -25.5t-71 -30.5l-25 -14v-370h-70zM150 593l-123 139h71l77 -88l76 88h71l-124 -139h-48z" />
    <glyph glyph-name="Sacute" unicode="&#x15a;" horiz-adv-x="541" 
d="M479 684l-7 -60q-138 16 -196 16q-154 0 -154 -116q0 -66 35 -89.5t137 -45.5q110 -24 154.5 -61.5t44.5 -123.5q0 -213 -220 -213q-36 0 -90.5 5t-90.5 10l-37 6l7 61q137 -18 208 -18q151 0 151 144q0 58 -33.5 82.5t-123.5 41.5q-117 24 -166 63t-49 133
q0 185 222 185q36 0 88 -5t86 -10zM165 831l213 99l25 -62l-216 -88z" />
    <glyph glyph-name="sacute" unicode="&#x15b;" horiz-adv-x="465" 
d="M404 491l-2 -60q-110 16 -174 16q-112 0 -112 -79q0 -36 25.5 -51.5t105.5 -28.5q100 -17 137 -44.5t37 -97.5q0 -84 -49.5 -120t-144.5 -36q-28 0 -72 5t-73 9l-30 5l4 60q114 -16 165 -16q67 0 98 19.5t31 70.5q0 40 -26 55.5t-111 28.5q-93 15 -130 42t-37 97
q0 76 51 110t127 34q34 0 79 -5t73 -9zM116 641l213 98l24 -60l-217 -86z" />
    <glyph glyph-name="Scircumflex" unicode="&#x15c;" horiz-adv-x="541" 
d="M479 684l-7 -60q-138 16 -196 16q-154 0 -154 -116q0 -66 35 -89.5t137 -45.5q110 -24 154.5 -61.5t44.5 -123.5q0 -213 -220 -213q-36 0 -90.5 5t-90.5 10l-37 6l7 61q137 -18 208 -18q151 0 151 144q0 58 -33.5 82.5t-123.5 41.5q-117 24 -166 63t-49 133
q0 185 222 185q36 0 88 -5t86 -10zM109 791l134 133h61l134 -133h-79l-85 82l-85 -82h-80z" />
    <glyph glyph-name="scircumflex" unicode="&#x15d;" horiz-adv-x="465" 
d="M404 491l-2 -60q-110 16 -174 16q-112 0 -112 -79q0 -36 25.5 -51.5t105.5 -28.5q100 -17 137 -44.5t37 -97.5q0 -84 -49.5 -120t-144.5 -36q-28 0 -72 5t-73 9l-30 5l4 60q114 -16 165 -16q67 0 98 19.5t31 70.5q0 40 -26 55.5t-111 28.5q-93 15 -130 42t-37 97
q0 76 51 110t127 34q34 0 79 -5t73 -9zM87 593l123 139h47l124 -139h-71l-76 88l-76 -88h-71z" />
    <glyph glyph-name="Scedilla" unicode="&#x15e;" horiz-adv-x="541" 
d="M408 -127q0 -88 -92 -88l-85 6l3 46q39 -3 67 -3q45 0 45 39q0 35 -45 35h-43v83q-36 1 -87 6t-83 10l-33 5l7 61q137 -18 208 -18q151 0 151 144q0 58 -33.5 82.5t-123.5 41.5q-117 24 -166 63t-49 133q0 185 222 185q36 0 88 -5t86 -10l34 -5l-7 -60q-138 16 -196 16
q-154 0 -154 -116q0 -66 35 -89.5t137 -45.5q110 -24 154.5 -61.5t44.5 -123.5q0 -201 -195 -212v-42q58 0 84 -16t26 -61z" />
    <glyph glyph-name="scedilla" unicode="&#x15f;" horiz-adv-x="465" 
d="M355 -127q0 -88 -92 -88l-85 6l3 46q39 -3 67 -3q45 0 45 39q0 35 -45 35h-43v83q-28 1 -66.5 5.5t-62.5 8.5l-24 4l4 60q114 -16 165 -16q67 0 98 19.5t31 70.5q0 40 -26 55.5t-111 28.5q-93 15 -130 42t-37 97q0 76 51 110t127 34q34 0 79 -5t73 -9l28 -5l-2 -60
q-110 16 -174 16q-112 0 -112 -79q0 -36 25.5 -51.5t105.5 -28.5q100 -17 137 -44.5t37 -97.5q0 -80 -45 -116t-131 -39v-41q58 0 84 -16t26 -61z" />
    <glyph glyph-name="Scaron" unicode="&#x160;" horiz-adv-x="541" 
d="M479 684l-7 -60q-138 16 -196 16q-154 0 -154 -116q0 -66 35 -89.5t137 -45.5q110 -24 154.5 -61.5t44.5 -123.5q0 -213 -220 -213q-36 0 -90.5 5t-90.5 10l-37 6l7 61q137 -18 208 -18q151 0 151 144q0 58 -33.5 82.5t-123.5 41.5q-117 24 -166 63t-49 133
q0 185 222 185q36 0 88 -5t86 -10zM251 794l-134 133h79l86 -82l84 82h80l-134 -133h-61z" />
    <glyph glyph-name="scaron" unicode="&#x161;" horiz-adv-x="465" 
d="M404 491l-2 -60q-110 16 -174 16q-112 0 -112 -79q0 -36 25.5 -51.5t105.5 -28.5q100 -17 137 -44.5t37 -97.5q0 -84 -49.5 -120t-144.5 -36q-28 0 -72 5t-73 9l-30 5l4 60q114 -16 165 -16q67 0 98 19.5t31 70.5q0 40 -26 55.5t-111 28.5q-93 15 -130 42t-37 97
q0 76 51 110t127 34q34 0 79 -5t73 -9zM217 593l-123 139h71l77 -88l76 88h71l-124 -139h-48z" />
    <glyph glyph-name="Tcommaaccent" unicode="&#x162;" horiz-adv-x="526" 
d="M208 -282l40 204h70l-49 -204h-61zM13 628v65h500v-65h-213v-628h-72v628h-215z" />
    <glyph glyph-name="tcommaaccent" unicode="&#x163;" horiz-adv-x="350" 
d="M109 -282l40 204h70l-50 -204h-60zM330 439h-161v-242q0 -89 13 -117t61 -28l90 6l4 -58q-66 -11 -101 -11q-77 0 -107 38t-30 144v268h-72v61h72v155h70v-155h161v-61z" />
    <glyph glyph-name="Tcaron" unicode="&#x164;" horiz-adv-x="526" 
d="M13 628v65h500v-65h-213v-628h-72v628h-215zM234 794l-134 133h79l86 -82l84 82h80l-134 -133h-61z" />
    <glyph glyph-name="tcaron" unicode="&#x165;" horiz-adv-x="427" 
d="M330 436h-161v-236q0 -89 13 -117t61 -28l91 6l4 -61q-67 -11 -102 -11q-77 0 -107 38t-30 144v265h-72v64h72v155h70v-155h161v-64zM437 696v-232h-68v232h68z" />
    <glyph glyph-name="Tbar" unicode="&#x166;" horiz-adv-x="529" 
d="M15 628v65h500v-65h-213v-262h166v-62h-166v-304h-72v304h-165v62h165v262h-215z" />
    <glyph glyph-name="tbar" unicode="&#x167;" horiz-adv-x="353" 
d="M332 436h-161v-124h138v-56h-138v-56q0 -89 13 -117t62 -28l90 6l4 -61q-66 -11 -101 -11q-78 0 -108 38t-30 144v85h-56v56h56v124h-72v64h72v155h70v-155h161v-64z" />
    <glyph glyph-name="Utilde" unicode="&#x168;" horiz-adv-x="644" 
d="M153 207q0 -153 166 -153q85 0 128.5 36t43.5 117v486h72v-485q0 -115 -61.5 -166.5t-182.5 -51.5q-117 0 -177.5 51.5t-60.5 166.5v485h72v-486zM471 915l17 -52l-13.5 -15.5t-30.5 -25t-39 -15.5q-25 0 -86.5 27.5t-75.5 27.5q-11 0 -29 -12t-30 -24l-13 -13l-16 53
q5 6 14 15.5t32 25.5t41 16q27 0 88 -27t74 -27q9 0 26 11.5t29 23.5z" />
    <glyph glyph-name="utilde" unicode="&#x169;" horiz-adv-x="529" 
d="M386 500h70v-500h-69v36q-76 -46 -151 -46q-101 0 -134.5 53t-33.5 196v261h70v-260q0 -112 19.5 -149.5t88.5 -37.5q33 0 68 9.5t54 19.5l18 10v408zM405 710l16 -46q-46 -50 -85 -50q-21 0 -73 24t-67 24q-11 0 -29 -10t-31 -20l-13 -10l-16 45q50 51 89 51
q22 0 74 -23.5t66 -23.5q9 0 26.5 9.5t29.5 19.5z" />
    <glyph glyph-name="Umacron" unicode="&#x16a;" horiz-adv-x="644" 
d="M153 207q0 -153 166 -153q85 0 128.5 36t43.5 117v486h72v-485q0 -115 -61.5 -166.5t-182.5 -51.5q-117 0 -177.5 51.5t-60.5 166.5v485h72v-486zM169 814v56h308v-56h-308z" />
    <glyph glyph-name="umacron" unicode="&#x16b;" horiz-adv-x="529" 
d="M386 500h70v-500h-69v36q-76 -46 -151 -46q-101 0 -134.5 53t-33.5 196v261h70v-260q0 -112 19.5 -149.5t88.5 -37.5q33 0 68 9.5t54 19.5l18 10v408zM126 626v56h274v-56h-274z" />
    <glyph glyph-name="Ubreve" unicode="&#x16c;" horiz-adv-x="644" 
d="M153 207q0 -153 166 -153q85 0 128.5 36t43.5 117v486h72v-485q0 -115 -61.5 -166.5t-182.5 -51.5q-117 0 -177.5 51.5t-60.5 166.5v485h72v-486zM169 919h65q1 -35 26.5 -55.5t63.5 -20.5t63.5 20.5t26.5 55.5h65q-3 -59 -45.5 -94.5t-109.5 -35.5q-68 0 -110.5 35.5
t-44.5 94.5z" />
    <glyph glyph-name="ubreve" unicode="&#x16d;" horiz-adv-x="529" 
d="M386 500h70v-500h-69v36q-76 -46 -151 -46q-101 0 -134.5 53t-33.5 196v261h70v-260q0 -112 19.5 -149.5t88.5 -37.5q33 0 68 9.5t54 19.5l18 10v408zM111 725h58q2 -38 25.5 -61.5t63.5 -23.5q41 0 64.5 23.5t24.5 61.5h58q-2 -59 -42 -98.5t-105 -39.5t-104.5 39.5
t-42.5 98.5z" />
    <glyph glyph-name="Uring" unicode="&#x16e;" horiz-adv-x="644" 
d="M153 207q0 -153 166 -153q85 0 128.5 36t43.5 117v486h72v-485q0 -115 -61.5 -166.5t-182.5 -51.5q-117 0 -177.5 51.5t-60.5 166.5v485h72v-486zM439 846q0 -48 -32.5 -76t-83.5 -28t-83 28t-32 76t32 76t83 28t83.5 -28t32.5 -76zM261 846q0 -26 16.5 -40.5t45.5 -14.5
t45.5 14.5t16.5 40.5q0 25 -16.5 39.5t-45.5 14.5t-45.5 -14.5t-16.5 -39.5z" />
    <glyph glyph-name="uring" unicode="&#x16f;" horiz-adv-x="529" 
d="M386 500h70v-500h-69v36q-76 -46 -151 -46q-101 0 -134.5 53t-33.5 196v261h70v-260q0 -112 19.5 -149.5t88.5 -37.5q33 0 68 9.5t54 19.5l18 10v408zM161 646q0 43 30 72.5t74 29.5q43 0 72.5 -29.5t29.5 -72.5q0 -44 -29.5 -73.5t-72.5 -29.5q-44 0 -74 29.5t-30 73.5z
M209 646q0 -24 16 -41t40 -17q23 0 39 17t16 41q0 23 -16 39.5t-39 16.5q-24 0 -40 -16.5t-16 -39.5z" />
    <glyph glyph-name="Uhungarumlaut" unicode="&#x170;" horiz-adv-x="644" 
d="M153 207q0 -153 166 -153q85 0 128.5 36t43.5 117v486h72v-485q0 -115 -61.5 -166.5t-182.5 -51.5q-117 0 -177.5 51.5t-60.5 166.5v485h72v-486zM352 785l148 126l50 -34l-152 -124zM155 786l148 126l50 -34l-151 -124z" />
    <glyph glyph-name="uhungarumlaut" unicode="&#x171;" horiz-adv-x="529" 
d="M386 500h70v-500h-69v36q-76 -46 -151 -46q-101 0 -134.5 53t-33.5 196v261h70v-260q0 -112 19.5 -149.5t88.5 -37.5q33 0 68 9.5t54 19.5l18 10v408zM301 624l147 134l50 -41l-150 -133zM109 624l147 134l50 -41l-150 -133z" />
    <glyph glyph-name="Uogonek" unicode="&#x172;" horiz-adv-x="644" 
d="M153 207q0 -153 166 -153q85 0 128.5 36t43.5 117v486h72v-485q0 -174 -150 -208l-9 -10l-18 -20t-20 -24.5t-17 -27t-7 -22.5q0 -19 11.5 -31.5t29.5 -12.5l51 6l7 -55q-44 -9 -77 -9q-40 0 -65 23.5t-25 63.5q0 47 63 110q-3 0 -9 -0.5t-9 -0.5q-117 0 -177.5 51.5
t-60.5 166.5v485h72v-486z" />
    <glyph glyph-name="uogonek" unicode="&#x173;" horiz-adv-x="529" 
d="M386 500h70v-500l-21.5 -20t-34 -40t-21.5 -44q0 -19 11.5 -31.5t30.5 -12.5l51 6l7 -55q-44 -9 -78 -9q-39 0 -64.5 23.5t-25.5 63.5q0 51 78 119h-3v33q-78 -43 -150 -43q-102 0 -135 52.5t-33 196.5v261h70v-259q0 -112 19.5 -150t88.5 -38q31 0 66 9.5t54 19.5l20 10
v408z" />
    <glyph glyph-name="Wcircumflex" unicode="&#x174;" horiz-adv-x="882" 
d="M31 693h74l121 -630h30l143 623h84l142 -623h31l120 630h75l-142 -693h-135l-133 598l-133 -598h-136zM276 791l134 133h61l134 -133h-79l-85 82l-85 -82h-80z" />
    <glyph glyph-name="wcircumflex" unicode="&#x175;" horiz-adv-x="762" 
d="M32 500h70l104 -439h15l123 429h73l123 -429h16l104 439h70l-121 -500h-118l-110 398l-111 -398h-117zM235 593l123 139h47l124 -139h-71l-76 88l-76 -88h-71z" />
    <glyph glyph-name="Ycircumflex" unicode="&#x176;" horiz-adv-x="537" 
d="M304 292v-292h-71v292l-222 401h81l176 -328l177 328h80zM104 794l134 133h61l134 -133h-79l-85 82l-85 -82h-80z" />
    <glyph glyph-name="ycircumflex" unicode="&#x177;" horiz-adv-x="481" 
d="M26 500h70l127 -439h35l128 439h70l-210 -723h-70l66 223h-72zM97 593l123 139h47l124 -139h-71l-76 88l-76 -88h-71z" />
    <glyph glyph-name="Ydieresis" unicode="&#x178;" horiz-adv-x="537" 
d="M304 292v-292h-71v292l-222 401h81l176 -328l177 328h80zM132 812v87h68v-87h-68zM334 812v87h68v-87h-68z" />
    <glyph glyph-name="Zacute" unicode="&#x179;" horiz-adv-x="537" 
d="M43 629v64h450v-88l-368 -521v-21h368v-64h-450v87l368 521v22h-368zM156 831l213 99l25 -62l-216 -88z" />
    <glyph glyph-name="zacute" unicode="&#x17a;" horiz-adv-x="455" 
d="M42 437v63h371v-63l-286 -374h286v-63h-371v63l286 374h-286zM116 641l213 98l24 -60l-217 -86z" />
    <glyph glyph-name="Zdotaccent" unicode="&#x17b;" horiz-adv-x="537" 
d="M43 629v64h450v-88l-368 -521v-21h368v-64h-450v87l368 521v22h-368zM233 803v83h70v-83h-70z" />
    <glyph glyph-name="zdotaccent" unicode="&#x17c;" horiz-adv-x="455" 
d="M42 437v63h371v-63l-286 -374h286v-63h-371v63l286 374h-286zM192 614v83h70v-83h-70z" />
    <glyph glyph-name="Zcaron" unicode="&#x17d;" horiz-adv-x="537" 
d="M43 629v64h450v-88l-368 -521v-21h368v-64h-450v87l368 521v22h-368zM246 794l-134 133h79l86 -82l84 82h80l-134 -133h-61z" />
    <glyph glyph-name="zcaron" unicode="&#x17e;" horiz-adv-x="455" 
d="M42 437v63h371v-63l-286 -374h286v-63h-371v63l286 374h-286zM206 593l-123 139h71l77 -88l76 88h71l-124 -139h-48z" />
    <glyph glyph-name="florin" unicode="&#x192;" 
d="M277 -55q0 -101 -32.5 -141t-108.5 -40l-98 8l1 60q61 -4 91 -4q41 0 59.5 26.5t18.5 91.5v418h-64v61h64v56q0 46 4.5 79t17.5 64t41 47t70 16q19 0 44 -2.5t41 -4.5l15 -2l-1 -59q-46 4 -86 4q-77 0 -77 -119v-79h148v-61h-148v-419z" />
    <glyph glyph-name="Aringacute" unicode="&#x1fa;" horiz-adv-x="595" 
d="M413 748q0 -47 -30 -74l188 -674h-71l-52 183h-300l-52 -183h-72l187 674q-29 27 -29 74q0 48 32 76t83 28t83.5 -28t32.5 -76zM271 631l-107 -384h268l-108 384h-53zM173 924l213 99l25 -62l-216 -88zM235 748q0 -26 16.5 -40.5t45.5 -14.5h5q57 3 57 55
q0 25 -16.5 39.5t-45.5 14.5t-45.5 -14.5t-16.5 -39.5z" />
    <glyph glyph-name="aringacute" unicode="&#x1fb;" horiz-adv-x="501" 
d="M423 350v-260q4 -37 60 -44l-3 -55q-79 0 -117 39q-91 -40 -182 -40q-68 0 -104 38.5t-36 113.5q0 70 36.5 105t114.5 42l161 16v45q0 52 -22.5 75t-70.5 23q-31 0 -78 -3.5t-78 -6.5l-32 -4l-4 54q111 22 196 22q83 0 121 -39t38 -121zM353 252l-153 -15
q-46 -5 -66.5 -27.5t-20.5 -65.5q0 -95 79 -95q34 0 74 8t64 16l23 8v171zM142 646q0 43 30 72.5t74 29.5q43 0 72.5 -29.5t29.5 -72.5q0 -44 -29.5 -73.5t-72.5 -29.5q-44 0 -74 29.5t-30 73.5zM190 646q0 -24 16 -41t40 -17q23 0 39 17t16 41q0 23 -16 39.5t-39 16.5
q-24 0 -40 -16.5t-16 -39.5zM134 822l213 98l24 -60l-217 -86z" />
    <glyph glyph-name="AEacute" unicode="&#x1fc;" horiz-adv-x="877" 
d="M410 0v180h-254l-61 -180h-75l228 696h581v-68h-348v-237h288v-68h-288v-255h348v-68h-419zM300 628l-125 -379h235v379h-110zM417 831l213 99l25 -62l-216 -88z" />
    <glyph glyph-name="aeacute" unicode="&#x1fd;" horiz-adv-x="806" 
d="M557 54q33 0 78.5 2t74.5 4l30 3l2 -57q-113 -16 -193 -16q-100 0 -146 54l-33 -14q-96 -40 -194 -40q-66 0 -100.5 39t-34.5 113q0 80 41 110.5t140 40.5l131 12v43q0 95 -89 95q-33 0 -80.5 -2.5t-79.5 -4.5l-31 -3l-2 62q118 15 195 15q105 0 136 -76q48 76 158 76
q101 0 150.5 -56.5t49.5 -178.5l-3 -54h-334q0 -86 30.5 -126.5t103.5 -40.5zM186 51q80 0 185 38q-19 53 -19 159l-152 -13q-45 -4 -66 -25.5t-21 -65.5q0 -45 19 -69t54 -24zM423 277h267q0 92 -30.5 131t-99.5 39q-68 0 -102.5 -40.5t-34.5 -129.5zM293 641l213 98
l24 -60l-217 -86z" />
    <glyph glyph-name="Oslashacute" unicode="&#x1fe;" horiz-adv-x="663" 
d="M332 -10q-71 0 -122 18l-57 -123l-54 24l59 126q-54 40 -76.5 115t-22.5 193q0 183 60 271.5t213 88.5q73 0 128 -22l55 117l54 -23l-58 -125q93 -77 93 -307q0 -187 -58.5 -270t-213.5 -83zM133 343q0 -181 56 -241l242 517q-40 20 -99 20q-116 0 -157.5 -71t-41.5 -225
zM332 54q118 0 158 66t40 223q0 174 -52 238l-239 -512q37 -15 93 -15zM213 831l213 99l25 -62l-216 -88z" />
    <glyph glyph-name="oslashacute" unicode="&#x1ff;" horiz-adv-x="528" 
d="M264 510q41 0 76 -8l42 104l48 -18l-44 -104q90 -50 90 -228q0 -144 -45 -205t-167 -61q-42 0 -77 8l-44 -110l-47 17l44 109q-49 27 -68.5 85t-19.5 157q0 133 48 193.5t164 60.5zM264 449q-81 0 -111 -42t-30 -151q0 -77 9 -119t36 -62l149 368q-23 6 -53 6zM264 51
q87 0 114 44.5t27 160.5q0 128 -45 166l-150 -366q19 -5 54 -5zM146 641l213 98l24 -60l-217 -86z" />
    <glyph glyph-name="Scommaaccent" unicode="&#x218;" horiz-adv-x="541" 
d="M212 -282l40 204h70l-50 -204h-60zM479 684l-7 -60q-138 16 -196 16q-154 0 -154 -116q0 -66 35 -89.5t137 -45.5q110 -24 154.5 -61.5t44.5 -123.5q0 -213 -220 -213q-36 0 -90.5 5t-90.5 10l-37 6l7 61q137 -18 208 -18q151 0 151 144q0 58 -33.5 82.5t-123.5 41.5
q-117 24 -166 63t-49 133q0 185 222 185q36 0 88 -5t86 -10z" />
    <glyph glyph-name="scommaaccent" unicode="&#x219;" horiz-adv-x="465" 
d="M121 -282l41 204h69l-49 -204h-61zM404 491l-2 -60q-110 16 -174 16q-112 0 -112 -79q0 -36 25.5 -51.5t105.5 -28.5q100 -17 137 -44.5t37 -97.5q0 -84 -49.5 -120t-144.5 -36q-28 0 -72 5t-73 9l-30 5l4 60q114 -16 165 -16q67 0 98 19.5t31 70.5q0 40 -26 55.5
t-111 28.5q-93 15 -130 42t-37 97q0 76 51 110t127 34q34 0 79 -5t73 -9z" />
    <glyph glyph-name="uni021A" unicode="&#x21a;" horiz-adv-x="526" 
d="M208 -282l40 204h70l-49 -204h-61zM13 628v65h500v-65h-213v-628h-72v628h-215z" />
    <glyph glyph-name="uni021B" unicode="&#x21b;" horiz-adv-x="350" 
d="M109 -282l40 204h70l-50 -204h-60zM330 439h-161v-242q0 -89 13 -117t61 -28l90 6l4 -58q-66 -11 -101 -11q-77 0 -107 38t-30 144v268h-72v61h72v155h70v-155h161v-61z" />
    <glyph glyph-name="dotlessj" unicode="&#x237;" horiz-adv-x="215" 
d="M73 12v488h70v-489q0 -90 -33 -136.5t-133 -96.5l-27 55q78 45 100.5 77.5t22.5 101.5z" />
    <glyph glyph-name="circumflex" unicode="&#x2c6;" horiz-adv-x="234" 
d="M-18 593l123 139h47l124 -139h-71l-76 88l-76 -88h-71z" />
    <glyph glyph-name="caron" unicode="&#x2c7;" horiz-adv-x="234" 
d="M106 593l-123 139h71l77 -88l76 88h71l-124 -139h-48z" />
    <glyph glyph-name="breve" unicode="&#x2d8;" horiz-adv-x="234" 
d="M-17 725h58q2 -38 25.5 -61.5t63.5 -23.5q41 0 64.5 23.5t24.5 61.5h58q-2 -59 -42 -98.5t-105 -39.5t-104.5 39.5t-42.5 98.5z" />
    <glyph glyph-name="dotaccent" unicode="&#x2d9;" horiz-adv-x="234" 
d="M82 614v83h70v-83h-70z" />
    <glyph glyph-name="ring" unicode="&#x2da;" horiz-adv-x="234" 
d="M17 646q0 43 30 72.5t74 29.5q43 0 72.5 -29.5t29.5 -72.5q0 -44 -29.5 -73.5t-72.5 -29.5q-44 0 -74 29.5t-30 73.5zM65 646q0 -24 16 -41t40 -17q23 0 39 17t16 41q0 23 -16 39.5t-39 16.5q-24 0 -40 -16.5t-16 -39.5z" />
    <glyph glyph-name="ogonek" unicode="&#x2db;" horiz-adv-x="448" 
d="M327 1q-73 -72 -73 -105q0 -19 11.5 -31.5t29.5 -12.5l51 6l7 -55q-44 -9 -77 -9q-40 0 -65 23.5t-25 63.5q0 25 20.5 57t41.5 51l20 19z" />
    <glyph glyph-name="tilde" unicode="&#x2dc;" horiz-adv-x="234" 
d="M268 710l16 -46q-46 -50 -85 -50q-21 0 -73 24t-67 24q-11 0 -29 -10t-31 -20l-13 -10l-16 45q50 51 89 51q22 0 74 -23.5t66 -23.5q9 0 26.5 9.5t30.5 19.5z" />
    <glyph glyph-name="hungarumlaut" unicode="&#x2dd;" horiz-adv-x="234" 
d="M141 624l147 134l50 -41l-150 -133zM-51 624l147 134l50 -41l-150 -133z" />
    <glyph glyph-name="pi" unicode="&#x3c0;" 
d="M362 154v285h-162l-28 -439h-71l31 439q-30 0 -57 -3.5t-39 -6.5l-13 -3v59q58 15 141 15h234q32 0 65 4t50 8l17 3v-60q-29 -12 -98 -14v-287q0 -59 17.5 -78t70.5 -19v-61q-97 0 -127.5 31t-30.5 127z" />
    <glyph glyph-name="Wgrave" unicode="&#x1e80;" horiz-adv-x="882" 
d="M31 693h74l121 -630h30l143 623h84l142 -623h31l120 630h75l-142 -693h-135l-133 598l-133 -598h-136zM343 930l213 -99l-21 -51l-216 88z" />
    <glyph glyph-name="wgrave" unicode="&#x1e81;" horiz-adv-x="762" 
d="M32 500h70l104 -439h15l123 429h73l123 -429h16l104 439h70l-121 -500h-118l-110 398l-111 -398h-117zM265 739l213 -98l-20 -48l-217 86z" />
    <glyph glyph-name="Wacute" unicode="&#x1e82;" horiz-adv-x="882" 
d="M31 693h74l121 -630h30l143 623h84l142 -623h31l120 630h75l-142 -693h-135l-133 598l-133 -598h-136zM332 831l213 99l25 -62l-216 -88z" />
    <glyph glyph-name="wacute" unicode="&#x1e83;" horiz-adv-x="762" 
d="M32 500h70l104 -439h15l123 429h73l123 -429h16l104 439h70l-121 -500h-118l-110 398l-111 -398h-117zM280 641l213 98l24 -60l-217 -86z" />
    <glyph glyph-name="Wdieresis" unicode="&#x1e84;" horiz-adv-x="882" 
d="M31 693h74l121 -630h30l143 623h84l142 -623h31l120 630h75l-142 -693h-135l-133 598l-133 -598h-136zM306 812v87h68v-87h-68zM508 812v87h68v-87h-68z" />
    <glyph glyph-name="wdieresis" unicode="&#x1e85;" horiz-adv-x="762" 
d="M32 500h70l104 -439h15l123 429h73l123 -429h16l104 439h70l-121 -500h-118l-110 398l-111 -398h-117zM248 623v87h68v-87h-68zM448 623v87h67v-87h-67z" />
    <glyph glyph-name="uni1EAB" unicode="&#x1eab;" horiz-adv-x="501" 
d="M423 350v-260q4 -37 60 -44l-3 -55q-79 0 -117 39q-91 -40 -182 -40q-68 0 -104 38.5t-36 113.5q0 70 36.5 105t114.5 42l161 16v45q0 52 -22.5 75t-70.5 23q-31 0 -78 -3.5t-78 -6.5l-32 -4l-4 54q111 22 196 22q83 0 121 -39t38 -121zM353 252l-153 -15
q-46 -5 -66.5 -27.5t-20.5 -65.5q0 -95 79 -95q34 0 74 8t64 16l23 8v171zM89 563l123 139h47l124 -139h-71l-76 88l-76 -88h-71zM368 831l16 -46q-46 -50 -85 -50q-21 0 -73 24t-67 24q-11 0 -29 -10t-31 -20l-13 -10l-16 45q50 51 89 51q22 0 74 -23.5t66 -23.5
q9 0 26.5 10t30.5 20z" />
    <glyph glyph-name="uni1EB0" unicode="&#x1eb0;" horiz-adv-x="593" 
d="M24 0l193 696h161l191 -695h-72l-54 179h-295l-52 -180h-72zM271 630l-106 -381h262l-105 381h-51zM141 885h65q1 -35 26.5 -55.5t63.5 -20.5t63.5 20.5t26.5 55.5h65q-3 -59 -45.5 -94.5t-109.5 -35.5q-68 0 -110.5 35.5t-44.5 94.5zM146 1080l213 -98l-20 -48l-217 86z
" />
    <glyph glyph-name="uni1EC5" unicode="&#x1ec5;" horiz-adv-x="505" 
d="M256 54q33 0 78.5 2t75.5 4l29 3l2 -57q-113 -16 -193 -16q-109 1 -153 63.5t-44 194.5q0 262 208 262q101 0 150.5 -56.5t49.5 -178.5l-3 -54h-334q0 -86 30.5 -126.5t103.5 -40.5zM122 277h267q0 92 -30.5 131t-99.5 39q-137 0 -137 -170zM110 563l123 139h47l124 -139
h-71l-76 88l-76 -88h-71zM392 831l16 -46q-46 -50 -85 -50q-21 0 -73 24t-67 24q-11 0 -29 -10t-31 -20l-13 -10l-16 45q50 51 89 51q22 0 74 -23.5t66 -23.5q9 0 26.5 10t30.5 20z" />
    <glyph glyph-name="uni1ED7" unicode="&#x1ed7;" horiz-adv-x="528" 
d="M264 510q116 0 164 -60.5t48 -193.5q0 -144 -45 -205t-167 -61t-167 61t-45 205q0 133 48 193.5t164 60.5zM264 51q87 0 114 44.5t27 160.5q0 109 -30 151t-111 42t-111 -42t-30 -151q0 -116 27 -160.5t114 -44.5zM111 563l123 139h47l124 -139h-71l-76 88l-76 -88h-71z
M387 831l16 -46q-46 -50 -85 -50q-21 0 -73 24t-67 24q-11 0 -29 -10t-31 -20l-13 -10l-16 45q50 51 89 51q22 0 74 -23.5t66 -23.5q9 0 26.5 10t29.5 20z" />
    <glyph glyph-name="Ygrave" unicode="&#x1ef2;" horiz-adv-x="537" 
d="M304 292v-292h-71v292l-222 401h81l176 -328l177 328h80zM163 930l213 -99l-21 -51l-216 88z" />
    <glyph glyph-name="ygrave" unicode="&#x1ef3;" horiz-adv-x="481" 
d="M26 500h70l127 -439h35l128 439h70l-210 -723h-70l66 223h-72zM131 739l213 -98l-20 -48l-217 86z" />
    <glyph glyph-name="uni1EF8" unicode="&#x1ef8;" horiz-adv-x="530" 
d="M302 299v-299h-72v299l-221 397h80l177 -317l174 317h81zM402 907l16 -46q-46 -50 -85 -50q-21 0 -73 24t-67 24q-11 0 -29 -10t-31 -20l-13 -10l-16 45q50 51 89 51q22 0 74 -23.5t66 -23.5q9 0 26.5 10t30.5 20z" />
    <glyph glyph-name="uni1EF9" unicode="&#x1ef9;" horiz-adv-x="481" 
d="M26 500h70l127 -433h35l128 433h70l-210 -723h-70l65 223h-71zM377 710l16 -46q-46 -50 -85 -50q-21 0 -73 24t-67 24q-11 0 -29 -10t-31 -20l-13 -10l-16 45q50 51 89 51q22 0 74 -23.5t66 -23.5q9 0 26.5 9.5t29.5 19.5z" />
    <glyph glyph-name="endash" unicode="&#x2013;" horiz-adv-x="633" 
d="M67 299h500v-62h-500v62z" />
    <glyph glyph-name="emdash" unicode="&#x2014;" horiz-adv-x="1133" 
d="M67 299h1000v-62h-1000v62z" />
    <glyph glyph-name="quoteleft" unicode="&#x2018;" horiz-adv-x="216" 
d="M169 710l-42 -216h-74l61 216h55z" />
    <glyph glyph-name="quoteright" unicode="&#x2019;" horiz-adv-x="213" 
d="M55 494l42 216h74l-61 -216h-55z" />
    <glyph glyph-name="quotesinglbase" unicode="&#x201a;" horiz-adv-x="214" 
d="M97 34l-13 -65h-22l18 65h17z" />
    <glyph glyph-name="quotedblleft" unicode="&#x201c;" horiz-adv-x="367" 
d="M320 710l-42 -216h-74l61 216h55zM169 710l-42 -216h-74l61 216h55z" />
    <glyph glyph-name="quotedblright" unicode="&#x201d;" horiz-adv-x="371" 
d="M55 494l42 216h74l-61 -216h-55zM213 494l42 216h74l-61 -216h-55z" />
    <glyph glyph-name="quotedblbase" unicode="&#x201e;" horiz-adv-x="353" 
d="M141 112l-42 -216h-74l61 216h55zM290 112l-42 -216h-74l61 216h55z" />
    <glyph glyph-name="dagger" unicode="&#x2020;" horiz-adv-x="478" 
d="M34 438v62h170v193h70v-193h170v-62h-170l-4 -514h-62l-4 514h-170z" />
    <glyph glyph-name="daggerdbl" unicode="&#x2021;" horiz-adv-x="522" 
d="M226 -76v193h-170v60h170v261h-170v62h170v193h70v-193h169v-62h-169v-261h169v-60h-169v-193h-70z" />
    <glyph glyph-name="bullet" unicode="&#x2022;" horiz-adv-x="475" 
d="M112 106v287h250v-287h-250z" />
    <glyph glyph-name="ellipsis" unicode="&#x2026;" horiz-adv-x="722" 
d="M68 0v110h77v-110h-77zM323 0v110h76v-110h-76zM577 0v110h76v-110h-76z" />
    <glyph glyph-name="perthousand" unicode="&#x2030;" horiz-adv-x="834" 
d="M148 621q-28 0 -40 -21.5t-12 -66.5q0 -93 52 -93t52 92q0 46 -12 67.5t-40 21.5zM167 -3l202 682l46 -14l-203 -682zM39 533q0 137 109 137t109 -138q0 -70 -29 -105.5t-80 -35.5q-52 0 -80.5 35.5t-28.5 106.5zM322 131q0 138 109 138t109 -138q0 -71 -29 -106t-80 -35
t-80 35t-29 106zM379 131q0 -92 52 -92q28 0 40 22.5t12 69.5q0 46 -11.5 67.5t-40.5 21.5q-28 0 -40 -21.5t-12 -67.5zM580 131q0 138 109 138q51 0 80 -34t29 -104q0 -71 -29 -106t-80 -35q-109 0 -109 141zM637 131q0 -92 52 -92q28 0 40 22.5t12 69.5q0 46 -11.5 67.5
t-40.5 21.5q-28 0 -40 -21.5t-12 -67.5z" />
    <glyph glyph-name="guilsinglleft" unicode="&#x2039;" horiz-adv-x="300" 
d="M232 346l-126 -96l126 -106v-74l-187 150v57l187 141v-72z" />
    <glyph glyph-name="guilsinglright" unicode="&#x203a;" horiz-adv-x="300" 
d="M194 254l-126 95v73l186 -142v-57l-186 -149v74z" />
    <glyph glyph-name="fraction" unicode="&#x2044;" horiz-adv-x="0" 
d="M-224 28l392 632l38 -25l-392 -631z" />
    <glyph glyph-name="zerosuperior" unicode="&#x2070;" horiz-adv-x="280" 
d="M139 800q60 0 89 -38t29 -128t-29.5 -128t-87.5 -38t-88 38t-30 129q0 89 29.5 127t87.5 38zM139 745q-29 0 -42.5 -25.5t-13.5 -85.5q0 -62 14 -86.5t43 -24.5t42.5 24.5t13.5 87.5q0 60 -13.5 85t-43.5 25z" />
    <glyph glyph-name="foursuperior" unicode="&#x2074;" horiz-adv-x="280" 
d="M166 478v49h-141v51l72 212h66l-75 -208h78l5 89h55v-89h28v-55h-28v-49h-60z" />
    <glyph glyph-name="fivesuperior" unicode="&#x2075;" horiz-adv-x="280" 
d="M54 790h186v-53h-136l-6 -77q30 16 60 16q92 0 92 -98q0 -108 -104 -108q-21 0 -48 3t-43 6l-16 3l5 50q55 -9 96 -9q49 0 49 53q0 47 -42 47q-13 0 -26.5 -4t-20.5 -8l-8 -4l-47 6z" />
    <glyph glyph-name="sixsuperior" unicode="&#x2076;" horiz-adv-x="280" 
d="M241 790l-4 -51q-49 7 -83 7q-63 0 -63 -78l9 3q9 3 24.5 7t27.5 4q102 0 102 -102q0 -52 -29.5 -82t-79.5 -30q-115 0 -115 161q0 89 29 130t93 41q16 0 38.5 -2.5t36.5 -5.5zM145 632q-12 0 -26 -4.5t-21 -9.5l-8 -4q3 -92 53 -92t50 57q0 28 -11 40.5t-37 12.5z" />
    <glyph glyph-name="sevensuperior" unicode="&#x2077;" horiz-adv-x="280" 
d="M30 731v59h204v-75l-105 -246l-65 13l103 228v21h-137z" />
    <glyph glyph-name="eightsuperior" unicode="&#x2078;" horiz-adv-x="280" 
d="M140 800q112 0 112 -85q0 -59 -44 -72q49 -15 49 -77q0 -98 -117 -98t-117 94q0 62 50 81q-45 16 -45 72q0 85 112 85zM140 519q56 0 56 47q0 38 -42 52h-28q-42 -14 -42 -54q0 -45 56 -45zM140 748q-52 0 -52 -38q0 -18 8.5 -28t29.5 -18h28q38 12 38 45q0 39 -52 39z
" />
    <glyph glyph-name="ninesuperior" unicode="&#x2079;" horiz-adv-x="280" 
d="M39 480l4 50q44 -7 82 -7q64 0 66 76l-9 -3q-10 -2 -26 -5.5t-29 -3.5q-48 0 -74 27t-26 77q0 51 30 80t79 29q117 0 117 -167q0 -86 -29.5 -125.5t-93.5 -39.5q-18 0 -41 3t-37 6zM135 636q11 0 25.5 3.5t23.5 6.5l9 4q-2 50 -14.5 73t-40.5 23q-24 0 -37.5 -14
t-13.5 -41q0 -24 13 -39.5t35 -15.5z" />
    <glyph glyph-name="zeroinferior" unicode="&#x2080;" horiz-adv-x="280" 
d="M139 222q60 0 89 -38t29 -128t-29.5 -128t-87.5 -38t-88 38t-30 129q0 89 29.5 127t87.5 38zM139 167q-29 0 -42.5 -25.5t-13.5 -85.5q0 -62 14 -86.5t43 -24.5t42.5 24.5t13.5 87.5q0 60 -13.5 85t-43.5 25z" />
    <glyph glyph-name="oneinferior" unicode="&#x2081;" horiz-adv-x="280" 
d="M47 142l102 70h56v-312h-60v246l-69 -48z" />
    <glyph glyph-name="twoinferior" unicode="&#x2082;" horiz-adv-x="280" 
d="M247 -100h-207v52l89 90q51 48 51 84q0 39 -50 39l-85 -8l-3 53q59 12 102 12q51 0 74.5 -22t23.5 -69q0 -33 -13.5 -57.5t-47.5 -55.5l-65 -63h131v-55z" />
    <glyph glyph-name="threeinferior" unicode="&#x2083;" horiz-adv-x="280" 
d="M35 211q58 11 102 11q103 0 103 -83q0 -23 -9 -41t-17 -24t-14 -9q25 -8 36.5 -24.5t11.5 -54.5q0 -96 -105 -96q-22 0 -50 2.5t-45 5.5l-17 2l4 53q57 -8 101 -8q51 0 51 44q0 45 -48 45h-66v51h65q15 0 27.5 13.5t12.5 32.5q0 36 -47 36q-19 0 -42 -2t-37 -4l-13 -2z
" />
    <glyph glyph-name="fourinferior" unicode="&#x2084;" horiz-adv-x="280" 
d="M173 -100v49h-141v51l72 212h66l-75 -208h78l5 89h55v-89h28v-55h-28v-49h-60z" />
    <glyph glyph-name="fiveinferior" unicode="&#x2085;" horiz-adv-x="280" 
d="M46 212h186v-53h-136l-6 -77q30 16 60 16q92 0 92 -98q0 -108 -104 -108q-21 0 -48 3t-43 6l-16 3l5 50q55 -9 96 -9q49 0 49 53q0 47 -42 47q-13 0 -26.5 -4t-20.5 -8l-8 -4l-47 6z" />
    <glyph glyph-name="sixinferior" unicode="&#x2086;" horiz-adv-x="280" 
d="M238 212l-4 -51q-49 7 -83 7q-63 0 -63 -78l9 3q9 3 24.5 7t27.5 4q102 0 102 -102q0 -52 -29.5 -82t-79.5 -30q-115 0 -115 161q0 89 29 130t93 41q16 0 38.5 -2.5t36.5 -5.5zM142 54q-12 0 -26 -4.5t-22 -9.5l-7 -4q3 -92 53 -92t50 57q0 28 -11 40.5t-37 12.5z" />
    <glyph glyph-name="seveninferior" unicode="&#x2087;" horiz-adv-x="280" 
d="M38 153v59h204v-75l-105 -246l-65 13l103 228v21h-137z" />
    <glyph glyph-name="eightinferior" unicode="&#x2088;" horiz-adv-x="280" 
d="M139 222q112 0 112 -85q0 -59 -44 -72q49 -15 49 -77q0 -98 -117 -98t-117 94q0 62 50 81q-45 16 -45 72q0 85 112 85zM139 -59q56 0 56 47q0 38 -42 52h-28q-42 -14 -42 -54q0 -45 56 -45zM139 170q-52 0 -52 -38q0 -18 8.5 -28t29.5 -18h28q38 12 38 45q0 39 -52 39z
" />
    <glyph glyph-name="nineinferior" unicode="&#x2089;" horiz-adv-x="280" 
d="M37 -98l4 50q44 -7 82 -7q64 0 66 76l-9 -3q-10 -2 -26 -5.5t-29 -3.5q-48 0 -74 27t-26 77q0 51 30 80t79 29q117 0 117 -167q0 -86 -29.5 -125.5t-93.5 -39.5q-18 0 -41 3t-37 6zM133 58q11 0 25.5 3.5t23.5 6.5l9 4q-2 50 -14.5 73t-40.5 23q-24 0 -37.5 -14
t-13.5 -41q0 -24 13 -39.5t35 -15.5z" />
    <glyph glyph-name="Euro" unicode="&#x20ac;" 
d="M30 380v57h64q13 119 66 176t171 57q92 0 182 -21l-4 -58q-89 17 -171 17q-86 0 -124.5 -41t-48.5 -130h292v-57h-295q-1 -16 -1 -51q0 -32 1 -47h295v-57h-292q9 -91 47.5 -132t126.5 -41q80 0 170 18l3 -60q-102 -20 -181 -20q-118 0 -171.5 57.5t-65.5 177.5h-64v57
h61q-1 15 -1 47q0 34 1 51h-61z" />
    <glyph glyph-name="trademark" unicode="&#x2122;" horiz-adv-x="679" 
d="M92 581v48h200v-48h-68v-249h-52v249h-80zM324 331v298h68l69 -213l73 213h68v-298h-50v229l-69 -215h-42l-68 215v-229h-49z" />
    <glyph glyph-name="Omega" unicode="&#x2126;" 
d="M45 53h126l-30.5 53.5t-49.5 119t-31 149.5q0 155 47.5 225.5t172.5 70.5t172.5 -70.5t47.5 -225.5q0 -64 -28 -144.5t-56 -128.5l-28 -49h127v-62h-196v53q12 22 29.5 58.5t47 120t29.5 133.5q0 138 -27.5 194.5t-117.5 56.5t-117.5 -56t-27.5 -195q0 -50 26.5 -128
t52.5 -131l26 -53v-53h-195v62z" />
    <glyph glyph-name="partialdiff" unicode="&#x2202;" 
d="M96 622l-4 57q10 6 26.5 14.5t62 22.5t85.5 14q120 0 176 -87t56 -280q0 -191 -54 -281.5t-175 -90.5q-106 0 -164 57.5t-58 166.5q0 99 56 157t154 58q36 0 78 -8t65 -16l24 -7q-4 144 -42.5 206.5t-127.5 62.5q-32 0 -71.5 -11.5t-62.5 -22.5zM264 368q-69 0 -106 -42
t-37 -111q0 -78 37.5 -120t110.5 -42q81 0 117.5 69t38.5 215q-83 31 -161 31z" />
    <glyph glyph-name="Delta" unicode="&#x2206;" 
d="M54 53l161 607h129l161 -607l1 -53h-452v53zM292 599h-26l-140 -537h306z" />
    <glyph glyph-name="product" unicode="&#x220f;" 
d="M386 -161v850h-213v-850h-72v850h-71v64h500v-64h-72v-850h-72z" />
    <glyph glyph-name="summation" unicode="&#x2211;" 
d="M314 308l-269 348v97h467v-64h-392v-23l260 -332v-52l-260 -353v-26h392v-64h-467v97z" />
    <glyph glyph-name="minus" unicode="&#x2212;" 
d="M67 219v64h426v-64h-426z" />
    <glyph glyph-name="radical" unicode="&#x221a;" 
d="M4 382v64h119l131 -522h10l231 852h72l-253 -913h-113l-137 519h-60z" />
    <glyph glyph-name="infinity" unicode="&#x221e;" 
d="M154 121q-124 0 -124 171q0 82 31 126.5t91 44.5q46 0 75.5 -26.5t52.5 -82.5q23 56 52 82.5t76 26.5q60 0 91 -44.5t31 -126.5q0 -171 -124 -171q-45 0 -74 26t-52 81q-23 -62 -50 -84.5t-76 -22.5zM254 292q-2 5 -9.5 22l-10 23t-9.5 19.5t-12.5 18.5l-13.5 12.5
t-18 10t-21 2.5q-62 0 -62 -108t62 -108q20 0 33.5 5.5t25 24t16.5 30t19 48.5zM305 292q3 -6 11.5 -25.5t12 -26.5t12 -21t16 -19.5t19 -10.5t24.5 -5q62 0 62 108t-62 108q-11 0 -21 -3t-18 -10t-13.5 -12.5t-12.5 -18t-10 -19.5l-10 -23t-10 -22z" />
    <glyph glyph-name="integral" unicode="&#x222b;" 
d="M314 -6q0 -99 -33 -139.5t-102 -40.5l-87 8l3 60q39 -5 70 -5q43 0 60.5 26t17.5 92v579q0 114 32 160t102 46q19 0 42 -2t36 -4l13 -3l-3 -59q-37 4 -75 4q-39 0 -57.5 -32t-18.5 -110v-580z" />
    <glyph glyph-name="approxequal" unicode="&#x2248;" 
d="M484 382l10 -57l-18 -15t-40.5 -24t-53.5 -15q-30 0 -106 31.5t-95 31.5q-18 0 -44.5 -12t-43.5 -24l-17 -11l-12 58q64 53 117 53q30 0 104.5 -31.5t96.5 -31.5q16 0 41.5 11.5t42.5 23.5zM484 199l10 -57l-18 -15t-40.5 -24t-53.5 -15q-30 0 -106 31.5t-95 31.5
q-18 0 -44.5 -11.5t-43.5 -23.5l-17 -12l-12 58q64 53 117 53q30 0 104.5 -31.5t96.5 -31.5q16 0 41.5 12t42.5 24z" />
    <glyph glyph-name="notequal" unicode="&#x2260;" 
d="M64 310v64h241l68 156l57 -22l-59 -134h124v-64h-152l-51 -118h203v-65h-232l-66 -152l-57 22l57 130h-133v65h161l52 118h-213z" />
    <glyph glyph-name="lessequal" unicode="&#x2264;" 
d="M488 425l-341 -106l341 -115v-71l-423 151v64l423 148v-71zM65 22v64h423v-64h-423z" />
    <glyph glyph-name="greaterequal" unicode="&#x2265;" 
d="M412 319l-341 106v71l423 -148v-64l-423 -151v71zM494 86v-64h-423v64h423z" />
    <glyph glyph-name="lozenge" unicode="&#x25ca;" 
d="M54 329l171 100h21l-118 -100l118 -98h-21zM432 329l-119 100h22l171 -100l-171 -98h-22zM292 213h-24l-22 18h67zM246 429l22 18h24l21 -18h-67z" />
    <glyph glyph-name="commaaccent" unicode="&#xf6c3;" horiz-adv-x="170" 
d="M26 -282l40 204h69l-49 -204h-60z" />
    <glyph glyph-name="zero.pnum" horiz-adv-x="531" 
d="M265 509q106 0 159 -59t53 -208q0 -139 -54.5 -195t-157.5 -56q-99 0 -155 57t-56 195q0 144 54.5 205t156.5 61zM265 448q-71 0 -108 -43.5t-37 -160.5q0 -108 37 -150t109 -42q73 0 108.5 41t35.5 149q0 120 -35 163t-110 43z" />
    <glyph glyph-name="one.pnum" horiz-adv-x="350" 
d="M27 387l187 113h60v-500h-67v425l-153 -92z" />
    <glyph glyph-name="two.pnum" horiz-adv-x="471" 
d="M422 0h-369v59l175 146q61 48 86 81t25 74q0 47 -28.5 66.5t-94.5 19.5q-22 0 -61.5 -4.5t-68 -8.5t-28.5 -5l-5 60q106 21 180 21q176 0 176 -143q0 -58 -26.5 -96t-84.5 -83l-156 -126h280v-61z" />
    <glyph glyph-name="three.pnum" horiz-adv-x="483" 
d="M58 492q103 18 179 18q88 0 133 -29t45 -96q0 -16 -3.5 -30t-8.5 -24.5t-12.5 -19.5t-14 -15t-15 -12t-13.5 -8.5t-12 -5.5l-7 -3q45 -14 73 -42t28 -85q0 -74 -49.5 -111.5t-136.5 -37.5q-37 0 -85 4.5t-78 9.5l-30 5l8 61q104 -15 185 -15q119 0 119 88q0 83 -117 87
h-125v60h124q44 2 73.5 21t29.5 61q0 40 -27 57t-83 17q-36 0 -79 -3.5t-69 -7.5l-25 -4z" />
    <glyph glyph-name="four.pnum" horiz-adv-x="472" 
d="M316 -21v115h-280v52l159 354h70l-156 -343h207v136h66v-136h54v-63h-54v-115h-66z" />
    <glyph glyph-name="five.pnum" horiz-adv-x="489" 
d="M80 502h340v-67h-280l-13 -151q70 32 133 32q180 0 180 -152q0 -84 -48.5 -128.5t-136.5 -44.5q-36 0 -86 5.5t-81 11.5l-32 6l8 61q118 -21 189 -21q116 0 116 107q0 93 -116 93q-26 0 -61.5 -9t-57.5 -17l-22 -9l-50 11z" />
    <glyph glyph-name="six.pnum" horiz-adv-x="491" 
d="M417 494l-5 -57q-86 13 -150 13q-69 0 -105.5 -39t-36.5 -132q84 38 147 38q178 0 178 -160q0 -81 -52 -124t-147 -43q-192 0 -192 264q0 255 208 255q33 0 72 -3.5t61 -7.5zM258 255q-26 0 -60.5 -8.5t-55.5 -16.5l-22 -8q3 -173 130 -173q129 0 129 108q0 52 -29 75
t-92 23z" />
    <glyph glyph-name="seven.pnum" horiz-adv-x="410" 
d="M36 441v60h341v-81l-215 -429l-58 17l209 414v19h-277z" />
    <glyph glyph-name="eight.pnum" horiz-adv-x="508" 
d="M253 509q192 0 192 -131q0 -84 -91 -116q50 -19 75 -46t25 -82q0 -78 -52.5 -111t-148.5 -33q-199 0 -199 139q0 56 24 84t71 49q-85 35 -85 116q0 131 189 131zM253 49q67 0 101 19t34 70q0 44 -23 63t-72 31h-85q-45 -12 -66 -33.5t-21 -64.5q0 -48 34 -66.5t98 -18.5z
M253 450q-63 0 -93 -17.5t-30 -58.5q0 -37 18.5 -56t59.5 -32h85q45 12 65.5 31.5t20.5 56.5q0 41 -31.5 58.5t-94.5 17.5z" />
    <glyph glyph-name="nine.pnum" horiz-adv-x="486" 
d="M67 8l6 57q81 -14 150 -14q141 0 141 172q-73 -34 -139 -34q-88 0 -133 40t-45 114q0 79 51 123t137 44q197 0 197 -259q0 -260 -209 -260q-34 0 -73 4t-61 9zM229 247q29 0 62 8.5t52 17.5l19 9q-2 85 -32.5 127t-95.5 42q-120 0 -120 -107q0 -97 115 -97z" />
    <glyph glyph-name="questiondown.cap" horiz-adv-x="439" 
d="M37 151q0 64 17.5 98t76.5 83q48 40 69 67.5t21 59.5v36h60q11 -27 11 -59q0 -35 -23.5 -65t-71.5 -72q-55 -48 -72 -74t-17 -69q0 -54 33.5 -78t103.5 -24q24 0 63 6t66 12l26 6l6 -57q-103 -30 -168 -30q-102 0 -151.5 37.5t-49.5 122.5zM290 693v-108h-76v108h76z" />
    <glyph glyph-name="endash.cap" horiz-adv-x="634" 
d="M68 329h500v-62h-500v62z" />
    <glyph glyph-name="emdash.cap" horiz-adv-x="1134" 
d="M68 329h1000v-62h-1000v62z" />
    <glyph glyph-name="periodcentered.cap" horiz-adv-x="213" 
d="M68 281v110h77v-110h-77z" />
    <glyph glyph-name="exclamdown.cap" horiz-adv-x="244" 
d="M160 693v-108h-77v108h77zM154 466l4 -466h-73l5 466h64z" />
    <glyph glyph-name="parenleft.cap" horiz-adv-x="260" 
d="M155 780h67q-11 -29 -26.5 -77t-42 -167.5t-26.5 -204.5t23.5 -191.5t47.5 -170.5l24 -64h-67l-11 24.5t-25 63.5t-31.5 96t-24.5 115t-11 127q0 95 26 207.5t52 177.5z" />
    <glyph glyph-name="parenright.cap" horiz-adv-x="260" 
d="M106 -90h-67q11 29 26.5 77t42 167.5t26.5 204.5t-24 191.5t-48 170.5l-23 64h67l11 -24.5t25 -63.5t31.5 -96t24.5 -115t11 -127t-10.5 -128t-25.5 -123t-30.5 -101t-26.5 -71z" />
    <glyph glyph-name="bracketleft.cap" horiz-adv-x="326" 
d="M286 779v-63h-136v-746h136v-63h-206v872h206z" />
    <glyph glyph-name="bracketright.cap" horiz-adv-x="326" 
d="M40 716v63h206v-872h-206v63h136v746h-136z" />
    <glyph glyph-name="braceleft.cap" horiz-adv-x="351" 
d="M201 200q0 -15 -3.5 -55.5t-3.5 -60.5q0 -59 25 -88t93 -33l-2 -61q-100 4 -142.5 45t-42.5 131q0 21 3.5 66t3.5 56q0 44 -25 70t-82 42v58q57 13 82 39.5t25 71.5q0 13 -3.5 60t-3.5 67q0 92 42.5 132t143.5 44l1 -60q-68 -4 -93.5 -32.5t-25.5 -86.5q0 -17 3.5 -62.5
t3.5 -59.5q0 -65 -21.5 -94t-82.5 -47q61 -18 83 -48.5t22 -93.5z" />
    <glyph glyph-name="braceright.cap" horiz-adv-x="351" 
d="M151 486q0 15 3.5 55.5t3.5 60.5q0 59 -25 88t-93 33l2 61q100 -4 142.5 -45t42.5 -131q0 -21 -3.5 -66t-3.5 -56q0 -44 25 -70t82 -42v-58q-57 -13 -82 -39.5t-25 -71.5q0 -13 3.5 -60t3.5 -67q0 -92 -42.5 -132t-143.5 -44l-1 60q68 4 93.5 32.5t25.5 86.5
q0 17 -3.5 62.5t-3.5 59.5q0 65 21.5 94t82.5 47q-61 18 -83 48.5t-22 93.5z" />
    <glyph glyph-name="grave.cap" horiz-adv-x="234" 
d="M34 930l213 -99l-21 -51l-216 88z" />
    <glyph glyph-name="acute.cap" horiz-adv-x="234" 
d="M13 831l213 99l25 -62l-216 -88z" />
    <glyph glyph-name="circumflex.cap" horiz-adv-x="460" 
d="M56 794l134 133h61l134 -133h-79l-85 82l-85 -82h-80z" />
    <glyph glyph-name="caron.cap" horiz-adv-x="234" 
d="M100 794l-134 133h79l86 -82l84 82h80l-134 -133h-61z" />
    <glyph glyph-name="tilde.cap" horiz-adv-x="234" 
d="M288 915l17 -52l-13.5 -15.5t-30.5 -25t-39 -15.5q-25 0 -86.5 27.5t-75.5 27.5q-11 0 -29 -12t-31 -24l-12 -13l-16 53q5 6 14 15.5t32 25.5t41 16q27 0 88 -27t74 -27q9 0 26 11.5t29 23.5z" />
    <glyph glyph-name="dieresis.cap" horiz-adv-x="234" 
d="M-20 812v87h68v-87h-68zM182 812v87h68v-87h-68z" />
    <glyph glyph-name="macron.cap" horiz-adv-x="234" 
d="M-22 814v56h308v-56h-308z" />
    <glyph glyph-name="breve.cap" horiz-adv-x="234" 
d="M-20 919h65q1 -35 26.5 -55.5t63.5 -20.5t63.5 20.5t26.5 55.5h65q-3 -59 -45.5 -94.5t-109.5 -35.5q-68 0 -110.5 35.5t-44.5 94.5z" />
    <glyph glyph-name="ring.cap" horiz-adv-x="234" 
d="M246 787q0 -48 -32.5 -76t-83.5 -28t-83 28t-32 76t32 76t83 28t83.5 -28t32.5 -76zM68 787q0 -26 16.5 -40.5t45.5 -14.5t45.5 14.5t16.5 40.5q0 25 -16.5 39.5t-45.5 14.5t-45.5 -14.5t-16.5 -39.5z" />
    <glyph glyph-name="hungarumlaut.cap" horiz-adv-x="234" 
d="M155 785l148 126l50 -34l-152 -124zM-42 786l148 126l50 -34l-151 -124z" />
    <glyph glyph-name="dotaccent.cap" horiz-adv-x="234" 
d="M82 803v83h70v-83h-70z" />
    <glyph glyph-name="zero.numr" horiz-adv-x="280" 
d="M139 700q60 0 89 -38t29 -128t-29.5 -128t-87.5 -38t-88 38t-30 129q0 89 29.5 127t87.5 38zM139 645q-29 0 -42.5 -25.5t-13.5 -85.5q0 -62 14 -86.5t43 -24.5t42.5 24.5t13.5 87.5q0 60 -13.5 85t-43.5 25z" />
    <glyph glyph-name="one.numr" horiz-adv-x="280" 
d="M42 620l102 70h56v-312h-60v246l-69 -48z" />
    <glyph glyph-name="two.numr" horiz-adv-x="280" 
d="M242 378h-207v52l89 90q51 48 51 84q0 39 -50 39l-85 -8l-3 53q59 12 102 12q51 0 74.5 -22t23.5 -69q0 -33 -13.5 -57.5t-47.5 -55.5l-65 -63h131v-55z" />
    <glyph glyph-name="three.numr" horiz-adv-x="280" 
d="M38 689q58 11 102 11q103 0 103 -83q0 -23 -9 -41t-17 -24t-14 -9q25 -8 36.5 -24.5t11.5 -54.5q0 -96 -105 -96q-22 0 -50 2.5t-45 5.5l-17 2l4 53q57 -8 101 -8q51 0 51 44q0 45 -48 45h-66v51h65q15 0 27.5 13.5t12.5 32.5q0 36 -47 36q-19 0 -42 -2t-36 -4l-14 -2z
" />
    <glyph glyph-name="four.numr" horiz-adv-x="280" 
d="M166 378v49h-141v51l72 212h66l-75 -208h78l5 89h55v-89h28v-55h-28v-49h-60z" />
    <glyph glyph-name="five.numr" horiz-adv-x="280" 
d="M53 690h186v-53h-136l-6 -77q30 16 60 16q92 0 92 -98q0 -108 -104 -108q-21 0 -48 3t-43 6l-16 3l5 50q55 -9 96 -9q49 0 49 53q0 47 -42 47q-13 0 -26.5 -4t-21.5 -8l-7 -4l-47 6z" />
    <glyph glyph-name="six.numr" horiz-adv-x="280" 
d="M240 690l-4 -51q-49 7 -83 7q-63 0 -63 -78l9 3q9 3 24.5 7t27.5 4q102 0 102 -102q0 -52 -29.5 -82t-79.5 -30q-115 0 -115 161q0 89 29 130t93 41q16 0 38.5 -2.5t36.5 -5.5zM144 532q-12 0 -26 -4.5t-22 -9.5l-7 -4q3 -92 53 -92t50 57q0 28 -11 40.5t-37 12.5z" />
    <glyph glyph-name="seven.numr" horiz-adv-x="280" 
d="M40 631v59h204v-75l-105 -246l-65 13l103 228v21h-137z" />
    <glyph glyph-name="eight.numr" horiz-adv-x="280" 
d="M140 700q112 0 112 -85q0 -59 -44 -72q49 -15 49 -77q0 -98 -117 -98t-117 94q0 62 50 81q-45 16 -45 72q0 85 112 85zM140 419q56 0 56 47q0 38 -42 52h-28q-42 -14 -42 -54q0 -45 56 -45zM140 648q-52 0 -52 -38q0 -18 8.5 -28t29.5 -18h28q38 12 38 45q0 39 -52 39z
" />
    <glyph glyph-name="nine.numr" horiz-adv-x="280" 
d="M41 380l4 50q44 -7 82 -7q64 0 66 76l-9 -3q-10 -2 -26 -5.5t-29 -3.5q-48 0 -74 27t-26 77q0 51 30 80t79 29q117 0 117 -167q0 -86 -29.5 -125.5t-93.5 -39.5q-18 0 -41 3t-37 6zM137 536q11 0 25.5 3.5t23.5 6.5l9 4q-2 50 -14.5 73t-40.5 23q-24 0 -37.5 -14
t-13.5 -41q0 -24 13 -39.5t35 -15.5z" />
    <glyph glyph-name="zero.slash" 
d="M254 280v95h61v-95h-61zM279 671q123 0 181.5 -77.5t58.5 -274.5q0 -93 -16 -158t-48 -102t-74 -53t-101 -16q-120 0 -180 73.5t-60 255.5q0 101 15.5 170t47.5 108.5t74.5 56.5t101.5 17zM280 607q-58 0 -92.5 -24t-53.5 -88t-19 -177q0 -150 40 -207t125 -57t125 57.5
t40 207.5q0 164 -38.5 226t-126.5 62z" />
    <glyph glyph-name="at.cap" horiz-adv-x="972" 
d="M930 365v-14q0 -77 -8.5 -131t-22 -86.5t-37 -50.5t-47.5 -24t-59 -6q-28 0 -50 6.5t-34 15.5t-19.5 17.5t-10.5 15.5l-2 6q-11 -7 -29.5 -17t-65.5 -26.5t-81 -16.5q-28 0 -50.5 4.5t-47 20.5t-40.5 42.5t-26.5 73.5t-10.5 111q0 133 45 196.5t158 63.5q22 0 51.5 -6.5
t48.5 -13.5l18 -6v16h69v-193q0 -63 0.5 -98t3.5 -67.5t7.5 -46t14.5 -24.5t22 -13t32 -2q21 0 34 3.5t27 17t21.5 39t12.5 70.5t5 109v15q0 186 -83 270t-274 84q-195 0 -288 -94.5t-93 -304.5q0 -222 89 -311.5t292 -89.5l143 9l3 -62q-95 -10 -146 -10q-116 0 -196.5 22
t-140 74.5t-87.5 143t-28 224.5q0 242 114 351.5t338 109.5q223 0 325.5 -102t102.5 -315zM468 116q55 0 151 48q-9 45 -9 178v141q-62 21 -107 21q-84 0 -114 -47.5t-30 -152.5q0 -109 30.5 -148.5t78.5 -39.5z" />
    <glyph glyph-name="zero.dnom" horiz-adv-x="280" 
d="M139 322q60 0 89 -38t29 -128t-29.5 -128t-87.5 -38t-88 38t-30 129q0 89 29.5 127t87.5 38zM139 267q-29 0 -42.5 -25.5t-13.5 -85.5q0 -62 14 -86.5t43 -24.5t42.5 24.5t13.5 87.5q0 60 -13.5 85t-43.5 25z" />
    <glyph glyph-name="one.dnom" horiz-adv-x="280" 
d="M44 242l102 70h56v-312h-60v246l-69 -48z" />
    <glyph glyph-name="two.dnom" horiz-adv-x="280" 
d="M246 0h-207v52l89 90q51 48 51 84q0 39 -50 39l-85 -8l-3 53q59 12 102 12q51 0 74.5 -22t23.5 -69q0 -33 -13.5 -57.5t-47.5 -55.5l-65 -63h131v-55z" />
    <glyph glyph-name="three.dnom" horiz-adv-x="280" 
d="M38 311q58 11 102 11q103 0 103 -83q0 -23 -9 -41t-17 -24t-14 -9q25 -8 36.5 -24.5t11.5 -54.5q0 -96 -105 -96q-22 0 -50 2.5t-45 5.5l-17 2l4 53q57 -8 101 -8q51 0 51 44q0 45 -48 45h-66v51h65q15 0 27.5 13.5t12.5 32.5q0 36 -47 36q-19 0 -42 -2t-36 -4l-14 -2z
" />
    <glyph glyph-name="four.dnom" horiz-adv-x="280" 
d="M167 0v49h-141v51l72 212h66l-75 -208h78l5 89h55v-89h28v-55h-28v-49h-60z" />
    <glyph glyph-name="five.dnom" horiz-adv-x="280" 
d="M49 312h186v-53h-136l-6 -77q30 16 60 16q92 0 92 -98q0 -108 -104 -108q-21 0 -48 3t-43 6l-16 3l5 50q55 -9 96 -9q49 0 49 53q0 47 -42 47q-13 0 -26.5 -4t-21.5 -8l-7 -4l-47 6z" />
    <glyph glyph-name="six.dnom" horiz-adv-x="280" 
d="M236 312l-4 -51q-49 7 -83 7q-63 0 -63 -78l9 3q9 3 24.5 7t27.5 4q102 0 102 -102q0 -52 -29.5 -82t-79.5 -30q-115 0 -115 161q0 89 29 130t93 41q16 0 38.5 -2.5t36.5 -5.5zM140 154q-12 0 -26 -4.5t-22 -9.5l-7 -4q3 -92 53 -92t50 57q0 28 -11 40.5t-37 12.5z" />
    <glyph glyph-name="seven.dnom" horiz-adv-x="280" 
d="M40 253v59h204v-75l-105 -246l-65 13l103 228v21h-137z" />
    <glyph glyph-name="eight.dnom" horiz-adv-x="280" 
d="M140 322q112 0 112 -85q0 -59 -44 -72q49 -15 49 -77q0 -98 -117 -98t-117 94q0 62 50 81q-45 16 -45 72q0 85 112 85zM140 41q56 0 56 47q0 38 -42 52h-28q-42 -14 -42 -54q0 -45 56 -45zM140 270q-52 0 -52 -38q0 -18 8.5 -28t29.5 -18h28q38 12 38 45q0 39 -52 39z
" />
    <glyph glyph-name="nine.dnom" horiz-adv-x="280" 
d="M38 2l4 50q44 -7 82 -7q64 0 66 76l-10 -3l-25 -5.5t-29 -3.5q-48 0 -74 27t-26 77q0 51 30 80t79 29q117 0 117 -167q0 -86 -29.5 -125.5t-93.5 -39.5q-18 0 -41 3t-36 6zM134 158q11 0 25.5 3.5t23.5 6.5l9 4q-2 50 -14.5 73t-40.5 23q-24 0 -37.5 -14t-13.5 -41
q0 -24 13 -39.5t35 -15.5z" />
    <glyph glyph-name="hyphen.cap" horiz-adv-x="440" 
d="M69 273v65h303v-65h-303z" />
    <glyph glyph-name="Tcedilla" horiz-adv-x="0" 
 />
    <glyph glyph-name="tcedilla" horiz-adv-x="350" 
d="M330 439h-161v-242q0 -89 13 -117t61 -28l90 6l4 -58q-66 -11 -101 -11q-77 0 -107 38t-30 144v268h-72v61h72v155h70v-155h161v-61zM263 -127q0 -88 -92 -88l-85 6l3 46q39 -3 67 -3q45 0 45 39q0 35 -45 35h-43v93h40v-51q58 0 84 -16t26 -61z" />
    </font>
</defs>
</svg>
